<?xml version="1.0" encoding="UTF-8"?><svg id="Layer_2" xmlns="http://www.w3.org/2000/svg" viewBox="0 0 345.6 345.6"><defs><style>.cls-1{fill:#f26535;}.cls-2{fill:none;}</style></defs><g id="Layer_1-2"><path class="cls-1" d="M141.78,265.63c-2.92-1.33-5.57-3.27-8.04-5.75l-45.7-45.7c-23.07-23.07-37.13-54.63-4.51-87.25,7.87-7.87,16.8-13.26,24.75-15.91,2.74-8.22,8.13-16.97,16-24.84,28.55-28.55,56.22-21.39,78.06-3.8l9.11,6.1c5.57,3.8,10.87,8.22,15.73,13.08l45.7,45.7c11.23,11.23,11.23,29.79-.18,41.19-10.08,10.08-25.72,11.4-37.22,3.8,7.69,11.23,6.54,26.87-3.54,36.95s-25.72,11.4-36.95,3.89c7.51,11.23,6.28,26.79-3.89,36.95s-25.64,11.32-36.86,3.8c-.35-.18-.71-.35-12.46-8.22Zm77-90.79c9.46,9.46,25.11,9.37,34.74-.27,9.64-9.64,9.64-25.19,.18-34.65l-45.7-45.7c-21.22-21.22-50.21-34.48-80.18-4.51-8.22,8.22-13.17,17.06-15.47,25.37-8.22,2.21-17.06,7.16-25.28,15.38-29.88,29.88-16.71,58.96,4.51,80.18l45.7,45.7c9.46,9.46,25.11,9.37,34.65-.18,9.72-9.72,9.72-25.28,.27-34.74l-45.97-45.97c-4.6-4.6-7.07-8.13-4.69-10.52s6.45,.62,10.52,4.69l45.97,45.97c9.46,9.46,25.11,9.37,34.74-.27s9.64-25.19,.18-34.65l-45.97-45.97c-4.6-4.6-7.07-8.13-4.69-10.52s6.45,.62,10.52,4.69l45.97,45.97Zm-131.01-6.01c-.88-20.69,7.07-28.29,5.75-29.61-7.69,7.69-12.29,17.94-11.93,28.2,.44,11.23,6.45,22.54,16.09,32.18,.71-.71-9.1-12.29-9.9-30.76Z"/><rect class="cls-2" width="345.6" height="345.6"/></g></svg>