<?xml version="1.0" encoding="UTF-8"?><svg id="Layer_2" xmlns="http://www.w3.org/2000/svg" viewBox="0 0 899.73 924.86"><defs><style>.cls-1{fill:#f26535;}.cls-2{fill:none;stroke:#f26535;stroke-miterlimit:10;stroke-width:40px;}</style></defs><g id="Layer_1-2"><g><g><path class="cls-1" d="M767.01,520.5c-.5,.61-.36,1.71-.56,2.51-1.03,4.12-.87,8.29-.43,12.48,1.26,11.73,6.72,21.47,14.39,30.11,1.95,2.19,2.35,3.79-.21,5.63-1,.72-1.79,1.72-2.7,2.56-25.53,23.51-53.41,43.85-83.17,61.64-4.65,2.78-9.51,5.22-14.19,7.95-2.53,1.48-3.55,.9-3.81-1.97-.32-3.54-.74-7.08-1.37-10.59-11.18-62.93-43.57-110.09-102.35-137.63-4.6-2.16-9.31-3.32-14.41-3.02-2.46,.26-5.06,.07-7.34,.86-16.68,5.71-31.13,14.57-40.93,29.75-8.47,13.11-9.25,26.38-1.58,40.35,13.78,25.12,24.52,51.41,28.83,79.99,2.72,17.92,.7,34.84-9.56,50.33-2.4,3.62-5.33,5.17-9.42,5.68-17.84,2.26-35.75,3.81-53.71,4.44-30.12,1.07-60.13-.87-89.87-5.59-70.66-11.22-135.74-36.79-195.01-76.99-20.84-14.13-40.51-29.69-59.03-46.72-2.75-2.52-3.78-4.23-.67-7.39,3.34-3.41,6.14-7.4,8.33-11.72,4.89-9.65,7.18-19.75,5.01-30.57-.11-.6-.11-1.33-.36-1.85-4.14,25.43-24.31,45.48-49.8,49.45,.52,.68,1.44,1.36,2.76,2.13,7.6,4.42,15.68,4.85,23.63,1.35,3.34-1.47,4.8-.72,6.76,1.93,28.2,38.35,63.08,69.49,103.34,94.58,70.16,43.74,147.05,64.41,229.41,65.28,17.96,.2,35.9-1.24,53.78-3.3,33.07-3.83,65.29-11.23,96.53-22.66,74.4-27.25,137.2-70.56,184.84-134.59,1.71-2.31,3.07-2.49,5.72-1.36,8.48,3.62,16.89,3.27,24.88-1.68,.87-.54,1.52-1.11,1.93-1.69-25.47-4.05-45.6-24.17-49.64-49.64Zm-119.97,138.97c-6.42,3.87-13.35,6.48-20.46,8.76-3.45,1.1-4.5,0-4.38-3.38,.95-27.39-8-52.1-20.59-75.82-.36-.68-.71-1.38-1.15-2.02-.41-.6-.74-1.54-1.72-1.17-.84,.33-.97,1.25-.75,1.98,.54,1.94,1.14,3.86,1.86,5.73,6.38,16.4,11.22,33.14,12.43,50.83,.54,7.95-.15,15.78-1.47,23.58-.75,4.45-3.75,6.94-7.58,8.74-12.31,5.79-25.5,8.66-38.65,11.62-6.2,1.4-12.44,2.56-18.69,3.72-2.12,.4-3.97,.26-2.5-2.78,9.98-20.55,8.53-41.8,3.69-63.21-5.44-24.05-14.38-46.77-26.22-68.37-3.56-6.48-6.84-13.09-4.66-20.74,6.79-23.8,30.41-36.64,54.26-25.96,20.22,9.06,36.76,23,50.32,40.31,13.61,17.4,25.73,35.75,31.96,57.31,3,10.34,4,20.98,4.7,33.6,1.17,7-3.12,12.85-10.41,17.25Z"/><path class="cls-1" d="M449.86,782.01c-20.01,0-40.01,0-60.02,0-1.39,0-2.82,.11-4.18-.12-3.3-.56-5.22-2.52-5.44-5.96-.22-3.42,1.34-5.76,4.57-6.63,1.91-.51,3.98-.53,5.98-.53,39.39-.03,78.78-.03,118.17,0,2,0,4.08,.02,5.98,.53,3.25,.87,4.77,3.23,4.56,6.64-.21,3.45-2.17,5.37-5.45,5.95-1.36,.24-2.78,.12-4.18,.12-20.01,0-40.01,0-60.02,0Z"/><g><path class="cls-1" d="M131.56,330.16c-1.13-3-1.63-6.25-1.63-9.75v-64.63c0-32.63,12.38-64.88,58.51-64.88,11.13,0,21.25,2.5,28.75,6.25,7.75-3.88,17.75-6.25,28.88-6.25,40.38,0,54.88,24.63,57.88,52.51l2.12,10.75c1.25,6.63,1.88,13.5,1.88,20.38v64.63c0,15.88-13.13,29-29.25,29-14.25,0-26.25-10.13-29-23.63-2.5,13.38-14.38,23.63-28.63,23.63s-26.25-10.13-28.88-23.38c-2.63,13.25-14.5,23.38-28.88,23.38s-26.13-10.13-28.75-23.38c-.12-.38-.25-.75-3-14.63Zm118.64-9.75c0,13.38,11.13,24.38,24.75,24.38s24.63-11,24.63-24.38v-64.63c0-30-11.13-59.88-53.51-59.88-11.63,0-21.38,2.75-28.88,7-7.38-4.25-17.13-7-28.75-7-42.26,0-53.51,29.88-53.51,59.88v64.63c0,13.38,11.13,24.38,24.63,24.38s24.75-11,24.75-24.38v-65.01c0-6.5,.75-10.75,4.13-10.75s4.13,5,4.13,10.75v65.01c0,13.38,11.13,24.38,24.75,24.38s24.63-11,24.63-24.38v-65.01c0-6.5,.75-10.75,4.13-10.75s4.13,5,4.13,10.75v65.01Zm-88.39-96.89c14-15.25,25-15,25-16.88-10.88,0-21.38,4-28.38,11.5-7.63,8.25-11.38,20.5-11.38,34.13,1,0,2.25-15.13,14.75-28.75Z"/><path class="cls-1" d="M324.84,330.16c-1.13-3-1.63-6.25-1.63-9.75v-64.63c0-32.63,12.38-64.88,58.51-64.88,11.13,0,21.25,2.5,28.75,6.25,7.75-3.88,17.75-6.25,28.88-6.25,40.38,0,54.88,24.63,57.88,52.51l2.12,10.75c1.25,6.63,1.88,13.5,1.88,20.38v64.63c0,15.88-13.13,29-29.25,29-14.25,0-26.25-10.13-29-23.63-2.5,13.38-14.38,23.63-28.63,23.63s-26.25-10.13-28.88-23.38c-2.63,13.25-14.5,23.38-28.88,23.38s-26.13-10.13-28.75-23.38c-.12-.38-.25-.75-3-14.63Zm118.64-9.75c0,13.38,11.13,24.38,24.75,24.38s24.63-11,24.63-24.38v-64.63c0-30-11.13-59.88-53.51-59.88-11.63,0-21.38,2.75-28.88,7-7.38-4.25-17.13-7-28.75-7-42.26,0-53.51,29.88-53.51,59.88v64.63c0,13.38,11.13,24.38,24.63,24.38s24.75-11,24.75-24.38v-65.01c0-6.5,.75-10.75,4.13-10.75s4.13,5,4.13,10.75v65.01c0,13.38,11.13,24.38,24.75,24.38s24.63-11,24.63-24.38v-65.01c0-6.5,.75-10.75,4.13-10.75s4.13,5,4.13,10.75v65.01Zm-88.39-96.89c14-15.25,25-15,25-16.88-10.88,0-21.38,4-28.38,11.5-7.63,8.25-11.38,20.5-11.38,34.13,1,0,2.25-15.13,14.75-28.75Z"/><path class="cls-1" d="M518.12,330.16c-1.13-3-1.63-6.25-1.63-9.75v-64.63c0-32.63,12.38-64.88,58.51-64.88,11.13,0,21.25,2.5,28.75,6.25,7.75-3.88,17.75-6.25,28.88-6.25,40.38,0,54.88,24.63,57.88,52.51l2.12,10.75c1.25,6.63,1.88,13.5,1.88,20.38v64.63c0,15.88-13.13,29-29.25,29-14.25,0-26.25-10.13-29-23.63-2.5,13.38-14.38,23.63-28.63,23.63s-26.25-10.13-28.88-23.38c-2.63,13.25-14.5,23.38-28.88,23.38s-26.13-10.13-28.75-23.38c-.12-.38-.25-.75-3-14.63Zm118.64-9.75c0,13.38,11.13,24.38,24.75,24.38s24.63-11,24.63-24.38v-64.63c0-30-11.13-59.88-53.51-59.88-11.63,0-21.38,2.75-28.88,7-7.38-4.25-17.13-7-28.75-7-42.26,0-53.51,29.88-53.51,59.88v64.63c0,13.38,11.13,24.38,24.63,24.38s24.75-11,24.75-24.38v-65.01c0-6.5,.75-10.75,4.13-10.75s4.13,5,4.13,10.75v65.01c0,13.38,11.13,24.38,24.75,24.38s24.63-11,24.63-24.38v-65.01c0-6.5,.75-10.75,4.13-10.75s4.13,5,4.13,10.75v65.01Zm-88.39-96.89c14-15.25,25-15,25-16.88-10.88,0-21.38,4-28.38,11.5-7.63,8.25-11.38,20.5-11.38,34.13,1,0,2.25-15.13,14.75-28.75Z"/><path class="cls-1" d="M716.03,307.04c-.62-1.75-1.13-3.62-4.38-19.38-1.25-3.25-1.88-6.88-1.88-10.75v-64.26c0-16.13,12.75-29.38,28.38-29.38s27.88,12.88,28.25,28.63c2.38,12.5,2.38,12.38,2.75,13.75,.38,1.88,.62,3.75,.62,5.75v64.26c0,6.63-2.25,12.88-5.88,17.75,1.5,3.5,2.38,7.25,2.5,11.25,2.38,12.5,2.38,12.38,2.75,13.75,.38,1.88,.62,3.75,.62,5.75,0,16-12.63,29-27.88,29-13.5,0-24.75-9.88-27.38-23.13-.5-1.88-.38-1.75-2.88-13.88-1.25-3.25-1.88-6.88-1.88-10.75,0-7,2.38-13.38,6.25-18.38Zm37-11.38c5.13-4.5,8.38-11.13,8.38-18.75v-64.26c0-13.38-10.5-24.38-23.25-24.38s-23.38,11-23.38,24.38v64.26c0,9.5,5.25,17.63,12.75,21.63,1.88,1,4.63,2.25,6.5,2.75-2.25,.75-5,1.5-7.13,2.75-7.25,4.12-12.13,12.25-12.13,21.38,0,13.5,10.5,24.38,23.38,24.38s23.25-10.88,23.25-24.38c0-9.75-5.5-18.13-13.38-22-1.5-.75-4.63-1.62-5.75-2,3.5-1.13,9.63-4.75,10.75-5.75Zm-12.13,17.63c-4.63-2-9.88-.38-13.5,4.38-3.5,4.75-3,9.75-3,11.75,2.25-5.13,11.38-14.25,16.5-16.13Zm-.25-113.89c-6.25-1.5-15.25,4.63-15.25,15.38,0,7.5-.88,30.75,1.25,30.75-.12,0,3.88-41.63,14-46.13Z"/></g></g><rect class="cls-2" x="20" y="20" width="859.73" height="884.86" rx="81.92" ry="81.92"/></g></g></svg>