<svg xmlns="http://www.w3.org/2000/svg" viewBox="0 0 261.79 126.61"><g id="Layer_2" data-name="Layer 2"><g id="Layer_1-2" data-name="Layer 1"><path d="M89.1,59a10.81,10.81,0,0,1,2,.37,31.22,31.22,0,0,0-6.66.37c-2.34.37-3.82.62-4.43.74a324,324,0,0,0-33.64,8.69l-3.7,1.29a2.25,2.25,0,0,1-.46.37,3.14,3.14,0,0,1-.83.37l.92,1.29L49,80a70.52,70.52,0,0,1,7.76,11.83,27,27,0,0,1,3.51,11.64,14.37,14.37,0,0,1,.18,2.59l-.36,3q-.2,7.58-6.84,12.38t-16.64,4.81a46.18,46.18,0,0,1-11.09-1.48,38,38,0,0,1-11.82-5.92,20.73,20.73,0,0,1-6.47-8.13A21.31,21.31,0,0,1,5,101.84q-.37-6.28,1.29-10a23.24,23.24,0,0,1,4.44-6.47,42.28,42.28,0,0,1,8.13-6.84A54.63,54.63,0,0,1,28.3,73c.86-.62,1.35-1,1.48-1.11a1,1,0,0,0-.37-.83,6,6,0,0,1-.56-.46l-8.69-7.77A101.77,101.77,0,0,1,9.82,52.12l-.93-1.84a6.31,6.31,0,0,0-1.66-2.41L5.19,44a.83.83,0,0,0-.46-.46,1.08,1.08,0,0,1-.46-.28,1.75,1.75,0,0,0-.74-1.48,4.61,4.61,0,0,1-1.29-1.66A36,36,0,0,1,.39,28.84a22.81,22.81,0,0,1,4.25-12A35.24,35.24,0,0,1,21.46,3.7,46.26,46.26,0,0,1,38.83.38a29.79,29.79,0,0,1,15,3.88A11.29,11.29,0,0,1,57.87,7.4a9,9,0,0,1,3.14,7l.18,2.77a16.18,16.18,0,0,1-.74,5.18,22.12,22.12,0,0,1-4.8,9.05A54.44,54.44,0,0,1,44.38,41.77a60.11,60.11,0,0,1-11.83,7l-2.22.74-.74.37L28.3,49l.74-.55a11.94,11.94,0,0,0,2.58-1.3Q40.86,41,43.08,39.19A47.52,47.52,0,0,0,53.25,28.84a28.35,28.35,0,0,0,4.06-7.4,18.76,18.76,0,0,0,.93-2.77l.18-.92a2.72,2.72,0,0,0-.55-1.67l-.74-2a9.17,9.17,0,0,0-4.44-5,18.12,18.12,0,0,0-7.76-2.59,30.66,30.66,0,0,0-3.88-.18A37,37,0,0,0,18.87,13.5a24.69,24.69,0,0,0-7.21,7.94,20,20,0,0,0-2.4,5.36,10.81,10.81,0,0,0-.37,2l.19,1.48a28.41,28.41,0,0,0,1.47,5,51.37,51.37,0,0,0,8.32,12.56q2.4,3,11.09,11.65l7.76,7.94.93.93L40.13,68A307.88,307.88,0,0,1,74,59.15c5.66-1,10-1.6,12.93-1.85a17.15,17.15,0,0,1,4.26.37c.12,0,.36.18.73.55h-1.1a49.57,49.57,0,0,0-11.09,1.11q-9.06,1.48-22.74,5.18a21.61,21.61,0,0,0-2.4.92,14.12,14.12,0,0,0-5.73,1.66,1.42,1.42,0,0,0-1.29.56H47a2.49,2.49,0,0,0-1.84.74,1.8,1.8,0,0,0-1.3.37,1,1,0,0,0,1.3-.37,3.76,3.76,0,0,0,2.4-.74,1.79,1.79,0,0,0,1.29-.37,27.2,27.2,0,0,0,6.1-1.66A2.49,2.49,0,0,0,56,65.43q10.35-2.58,15.52-3.7a64.55,64.55,0,0,1,10.91-2,22.24,22.24,0,0,1,2.77-.46c.74-.06,1.36-.09,1.85-.09A3,3,0,0,0,88.36,59ZM3,24.49a14.21,14.21,0,0,0,.37-2.86,3.51,3.51,0,0,0-1.3,2.77A33.64,33.64,0,0,0,2,28.56c.06,1.17.09,2.13.09,2.86,0,.37.25.5.74.37v-.73a13.85,13.85,0,0,0-.18-1.95,6.26,6.26,0,0,1,0-2.12A13.92,13.92,0,0,1,3,24.49ZM35.69,76.71a15.62,15.62,0,0,0-2.59-2l-1.66.56c-4.69,2.46-8.13,4.43-10.35,5.91A45.6,45.6,0,0,0,12.77,88,24,24,0,0,0,9.08,92.6a13.16,13.16,0,0,0-2,8.5l.56,3.14a21.25,21.25,0,0,0,9.61,13.12,25.58,25.58,0,0,0,7.21,3.33,37.14,37.14,0,0,0,11.82,1.85,26.49,26.49,0,0,0,10.72-2,17.52,17.52,0,0,0,4.62-2.78,13.27,13.27,0,0,0,4.07-5.91h-.18a3.55,3.55,0,0,0,1.29-2.22,10.82,10.82,0,0,1,.37-1.85V107a5.83,5.83,0,0,0-.74-2.41,17.37,17.37,0,0,1-.19,3.14,2.3,2.3,0,0,1-.09-1.1,2.34,2.34,0,0,0-.09-1.11,17.89,17.89,0,0,0-1.66-7.4,28.39,28.39,0,0,0-4.62-7.2l-6.66-7.21Zm11.09,46.38-1.85.37a53.68,53.68,0,0,1-9.43.93A4.52,4.52,0,0,0,34,124.2l-6.47-.74H26.45a2.49,2.49,0,0,0-1.2-.55,6.89,6.89,0,0,0-1.2-.19q-.56-.56-.93,0h.93a3.22,3.22,0,0,0,2.4.93.31.31,0,0,1,.28.18A.3.3,0,0,0,27,124a42.78,42.78,0,0,0,9.43,1.29,28.05,28.05,0,0,0,5.54-.55A10.65,10.65,0,0,0,46.78,123.09ZM25.71,6.66l1.85-.37a55.17,55.17,0,0,1,14-1.66,24.65,24.65,0,0,1,5.18.55h.74a2,2,0,0,0,1.11-.37,29.06,29.06,0,0,1-3.88-.74c-1.48-.37-2.66-.61-3.52-.74H38.65a29.6,29.6,0,0,0-10,1.85A15.85,15.85,0,0,0,25.71,6.66Zm3.7,43.25h0Zm14.23,19h-.47a1,1,0,0,0-.64.37,1.85,1.85,0,0,0-1.3.37,1.8,1.8,0,0,0,1.3-.37A2.85,2.85,0,0,0,43.64,68.94Z"/><path d="M36.61,126.61a46.42,46.42,0,0,1-11.18-1.49,38.57,38.57,0,0,1-12-6,21.29,21.29,0,0,1-6.58-8.27,21.77,21.77,0,0,1-2.26-9c-.24-4.21.2-7.63,1.33-10.13a23.68,23.68,0,0,1,4.5-6.57,43,43,0,0,1,8.2-6.9,56,56,0,0,1,9.47-5.57c.74-.53,1.1-.8,1.26-.93a.5.5,0,0,0-.21-.37,5.56,5.56,0,0,1-.6-.5l-8.66-7.75A102.6,102.6,0,0,1,9.53,52.36l-1-1.92A6,6,0,0,0,7,48.17l-.09-.12-2-3.88a.55.55,0,0,0-.25-.29,1.36,1.36,0,0,1-.6-.36l-.11-.11v-.16a1.42,1.42,0,0,0-.59-1.18A5.06,5.06,0,0,1,1.9,40.28,36.42,36.42,0,0,1,0,28.82,23.16,23.16,0,0,1,4.34,16.6a35.71,35.71,0,0,1,17-13.25A46.92,46.92,0,0,1,38.83,0,30.33,30.33,0,0,1,54,3.93a11.83,11.83,0,0,1,4.17,3.23,9.29,9.29,0,0,1,3.22,7.26l.19,2.75a17.06,17.06,0,0,1-.76,5.32,22.73,22.73,0,0,1-4.88,9.18A55.14,55.14,0,0,1,44.59,42.08,59.91,59.91,0,0,1,32.7,49.14l-2.25.75-.89.45L27.66,49l1.24-.91a11.75,11.75,0,0,0,2.5-1.25c6.15-4,10-6.72,11.44-7.93a47.09,47.09,0,0,0,10.1-10.28,28.59,28.59,0,0,0,4-7.29,17.94,17.94,0,0,0,.91-2.73l.18-.93a2.28,2.28,0,0,0-.48-1.36l0-.1-.74-2a8.84,8.84,0,0,0-4.27-4.79,17.84,17.84,0,0,0-7.62-2.54,30.09,30.09,0,0,0-3.84-.19,36.86,36.86,0,0,0-22,7.14A24.31,24.31,0,0,0,12,21.63a19.34,19.34,0,0,0-2.37,5.28,10.15,10.15,0,0,0-.35,1.93l.18,1.43a26.37,26.37,0,0,0,1.45,4.88,51.15,51.15,0,0,0,8.26,12.48c1.59,2,5.31,5.87,11.07,11.62L38.76,68,40,67.65a310.6,310.6,0,0,1,33.84-8.87c5.65-1,10-1.61,13-1.85a18.59,18.59,0,0,1,4.35.37c.2,0,.45.16.94.66l.64.64h-2c-.62,0-1.26,0-2,0h.28a10.3,10.3,0,0,1,2.13.38l-.12.74a31,31,0,0,0-6.57.36c-2.21.35-3.78.61-4.42.74a323.78,323.78,0,0,0-33.6,8.68l-3.61,1.26a3.34,3.34,0,0,1-.45.35,2.33,2.33,0,0,1-.45.24l.64.9,6.63,7.54a70.23,70.23,0,0,1,7.81,11.91,27.33,27.33,0,0,1,3.55,11.78,13.56,13.56,0,0,1,.19,2.62l-.37,3c-.13,5.12-2.48,9.38-7,12.64S43.31,126.61,36.61,126.61Zm-29.09-79a6.75,6.75,0,0,1,1.71,2.49L10.15,52A106.15,106.15,0,0,0,20.42,62.57l8.68,7.76a4.73,4.73,0,0,0,.53.44,1.34,1.34,0,0,1,.52,1.13v.16l-.11.11a15.78,15.78,0,0,1-1.52,1.14,55.52,55.52,0,0,0-9.42,5.54A42.52,42.52,0,0,0,11,85.64,23.06,23.06,0,0,0,6.65,92c-1.08,2.41-1.51,5.71-1.27,9.82a21.09,21.09,0,0,0,2.19,8.73,20.57,20.57,0,0,0,6.34,8,37.91,37.91,0,0,0,11.72,5.86,45.62,45.62,0,0,0,11,1.46c6.54,0,12.07-1.59,16.42-4.73s6.56-7.19,6.68-12.09l.37-3a13.24,13.24,0,0,0-.18-2.46,26.86,26.86,0,0,0-3.46-11.53A69.43,69.43,0,0,0,48.7,80.27L42.06,72.7,40.82,71l.48-.16a2.61,2.61,0,0,0,1.15-.64l.14-.09,3.7-1.3q5.85-1.83,11.56-3.41l-1.74.43A2.68,2.68,0,0,1,55,66a28,28,0,0,1-6,1.65,2.09,2.09,0,0,1-1.25.38h-.07a4.06,4.06,0,0,1-2.36.74,1.27,1.27,0,0,1-1.35.45l-.13.07a3.82,3.82,0,0,1-1.12.4h0a2.34,2.34,0,0,1-1.44.37h-.9l.64-.64a2,2,0,0,1,1.4-.48h0a1.21,1.21,0,0,1,.79-.37h.31l.08-.08A2,2,0,0,1,44.92,68h0a2.87,2.87,0,0,1,2-.74h.37a1.87,1.87,0,0,1,1.39-.55,14.27,14.27,0,0,1,5.73-1.66,18.06,18.06,0,0,1,2.43-.93C66,61.69,73.59,60,79.62,59A52.45,52.45,0,0,1,90,57.83a25.82,25.82,0,0,0-3.1-.16c-2.91.25-7.25.87-12.87,1.85a309.48,309.48,0,0,0-33.77,8.85l-1.71.43-1.07-1.07-7.77-8c-5.77-5.77-9.51-9.7-11.11-11.67a52,52,0,0,1-8.37-12.65,28.23,28.23,0,0,1-1.5-5.06l-.19-1.52a10.14,10.14,0,0,1,.38-2.17,20,20,0,0,1,2.45-5.47,25,25,0,0,1,7.3-8,37.56,37.56,0,0,1,22.4-7.28A31.5,31.5,0,0,1,45,6.1,18.69,18.69,0,0,1,52.9,8.75a9.51,9.51,0,0,1,4.58,5.18l.72,2a3,3,0,0,1,.6,1.84l-.2,1a16.75,16.75,0,0,1-.94,2.83,28.85,28.85,0,0,1-4.11,7.47A47.53,47.53,0,0,1,43.31,39.48c-1.48,1.24-5.24,3.85-11.48,8a12.53,12.53,0,0,1-2.61,1.31l-.29.22.7.49.53-.27,2.27-.76a59.7,59.7,0,0,0,11.72-7A54.37,54.37,0,0,0,55.36,31.19a21.92,21.92,0,0,0,4.73-8.92,16,16,0,0,0,.73-5.08l-.18-2.74a8.69,8.69,0,0,0-3-6.77,11,11,0,0,0-4-3.08A29.56,29.56,0,0,0,38.83.75,46.16,46.16,0,0,0,21.6,4.05,35,35,0,0,0,5,17,22.51,22.51,0,0,0,.76,28.87,36,36,0,0,0,2.6,40a4.21,4.21,0,0,0,1.16,1.48,2.11,2.11,0,0,1,.88,1.59.68.68,0,0,0,.21.1,1.18,1.18,0,0,1,.68.66ZM73,61q-5.26,1.11-11.63,2.75,6.43-1.57,10.12-2.36Zm15.25-2.37a55.73,55.73,0,0,0-7.25.86c.5-.06,1-.1,1.44-.14a20.33,20.33,0,0,1,2.77-.46c.77-.07,1.38-.1,1.88-.1a3,3,0,0,0,1.13-.14Zm-51.8,67.08a43,43,0,0,1-9.51-1.31.62.62,0,0,1-.53-.38,3.47,3.47,0,0,1-2.49-.9H22.42l.39-.58a.85.85,0,0,1,.65-.44.92.92,0,0,1,.73.27h0a7.57,7.57,0,0,1,1.12.18,2.89,2.89,0,0,1,1.26.55h1l6.51.74a5.33,5.33,0,0,1,1.49.18,53.17,53.17,0,0,0,9.3-.92l3.61-.72-1.48,1a11.07,11.07,0,0,1-5,1.73A28.49,28.49,0,0,1,36.43,125.69Zm-8.22-1.77a41.23,41.23,0,0,0,8.22,1,28.19,28.19,0,0,0,5.47-.55,15.23,15.23,0,0,0,1.78-.33,52.54,52.54,0,0,1-8.18.7l-.11,0a4.51,4.51,0,0,0-1.36-.16Zm8-1a37.7,37.7,0,0,1-11.94-1.86,26.06,26.06,0,0,1-7.3-3.37,21.77,21.77,0,0,1-9.77-13.34l-.56-3.17a13.64,13.64,0,0,1,2.08-8.76,24.08,24.08,0,0,1,3.78-4.71,45.62,45.62,0,0,1,8.35-6.87c2.22-1.48,5.71-3.47,10.38-5.94l1.87-.62.14.07a15.37,15.37,0,0,1,2.67,2.09h0l7.39,7L50,90.68A28.74,28.74,0,0,1,54.7,98a19.09,19.09,0,0,1,1.58,5.54l.44.9A6,6,0,0,1,57.5,107l0,.85a12.76,12.76,0,0,0-.35,1.78,3.74,3.74,0,0,1-1.06,2.12L56,112A13.8,13.8,0,0,1,51.82,118a18.32,18.32,0,0,1-4.71,2.82A26.89,26.89,0,0,1,36.24,122.91ZM33.07,75.08l-1.51.5C27,78,23.49,80,21.3,81.45a45.37,45.37,0,0,0-8.24,6.77,24.55,24.55,0,0,0-3.67,4.59,12.92,12.92,0,0,0-2,8.24L8,104.18a21,21,0,0,0,9.44,12.87,25.27,25.27,0,0,0,7.11,3.28,37,37,0,0,0,11.72,1.83,26.12,26.12,0,0,0,10.57-2,16.93,16.93,0,0,0,4.52-2.71,12.69,12.69,0,0,0,3.77-5.25h-.67l.79-.67a3.06,3.06,0,0,0,1.17-2,13.91,13.91,0,0,1,.36-1.86V107a2.32,2.32,0,0,0,0-.44,10,10,0,0,1-.14,1.25l-.27,1.38-.45-1.34a2.59,2.59,0,0,1-.11-1.29,1.86,1.86,0,0,0-.08-.93l0-.11A17.45,17.45,0,0,0,54,98.3a27.82,27.82,0,0,0-4.56-7.12L42.81,84l-7.37-7A16.86,16.86,0,0,0,33.07,75.08ZM2.47,32.22A.87.87,0,0,1,2,32.06a.79.79,0,0,1-.27-.64c0-.76,0-1.72-.09-2.84a34.51,34.51,0,0,1,.09-4.21,3.91,3.91,0,0,1,1.42-3l.62-.53v.82a14.85,14.85,0,0,1-.38,2.94h0A14,14,0,0,0,3,27a6,6,0,0,0,0,2.07,14.45,14.45,0,0,1,.19,2v1l-.29.07A1.62,1.62,0,0,1,2.47,32.22ZM2.9,22.7a3,3,0,0,0-.47,1.7q-.06.77-.09,1.47c.06-.4.15-.89.27-1.45h0C2.75,23.78,2.84,23.2,2.9,22.7ZM24.17,7.35l1.31-1a15.94,15.94,0,0,1,3-1.53A30.4,30.4,0,0,1,38.65,3h2.58a35.74,35.74,0,0,1,3.61.75,30.62,30.62,0,0,0,3.83.73l1,.11-.85.57a2.37,2.37,0,0,1-1.32.44h-.74A24.57,24.57,0,0,0,41.6,5a56.33,56.33,0,0,0-14,1.65Zm17-3.65H38.65a29.46,29.46,0,0,0-9.86,1.82l-.46.2A55,55,0,0,1,41.62,4.25h0a24.62,24.62,0,0,1,3.08.2h-.05C43.21,4.07,42,3.83,41.18,3.7Z"/><path d="M87,65.43c.55,0,.83.25.83.74a18.32,18.32,0,0,0-.37,2c-.13.87-.25,1.55-.37,2A101.56,101.56,0,0,0,85.4,81.33q-1.11,7.38-1.47,9L83.37,92a1.27,1.27,0,0,1-1.66.56L80.23,92a58.34,58.34,0,0,1-3.14-7.57c-.25-1.24-.59-2.59-1-4.07s-.83-3.14-1.2-5q-.18-.55-1.11-6.84c0-.49-.12-.8-.37-.92q-1.67.18-3,5.27a34.37,34.37,0,0,0-1.1,9.88,1.69,1.69,0,0,1-.84,1.48,2.68,2.68,0,0,1-1.38.56A1.23,1.23,0,0,1,66,84.28,2.77,2.77,0,0,1,65.07,83c-.12-.37-.34-1.3-.64-2.77s-.53-2.41-.65-2.78l-.55-5.73a48.92,48.92,0,0,1-.37-5.17l-.37-5v-9.8a121.05,121.05,0,0,1,.92-14,158.48,158.48,0,0,1,2.59-17A59.31,59.31,0,0,1,69.33,10a27.47,27.47,0,0,1,3-5,9,9,0,0,1,4.44-2.78,10.42,10.42,0,0,1,2.22-.37,5.79,5.79,0,0,1,4.8,2.41,16.43,16.43,0,0,1,3.14,5.91,41.39,41.39,0,0,1,1.48,10.72,44,44,0,0,1-.92,8.5A51.7,51.7,0,0,1,76,52.12a104.31,104.31,0,0,1-7.21,7.77A2,2,0,0,0,68,61.73c0,3.46.06,6,.19,7.77v.74a22.78,22.78,0,0,0,1.94-3.79q1.75-3.8,4.15-4.72a2.66,2.66,0,0,1,1.11-.18A2.15,2.15,0,0,1,77.64,63a4.48,4.48,0,0,1,.93,2l.74,3.88c.73,3.7,1.23,6.72,1.47,9.06l.93,7.21a1.48,1.48,0,0,0,.18.92.73.73,0,0,0,.56.74v1.29L83,86.87c.25-1.23.49-3.08.74-5.54l.37-2L84.66,76l.19-1.48a2.75,2.75,0,0,0-.37-1.11H85l.19-1.48L85,71.71,85.4,71a.46.46,0,0,0,0-.74L86,66.17A.93.93,0,0,1,87,65.43ZM67.48,19.78a10.66,10.66,0,0,0,.37-2.4,1.09,1.09,0,0,1-.37.74,12.63,12.63,0,0,1-.74,2.95,85.66,85.66,0,0,0-1.67,9.8L64.52,36l-.74,9.62q-.18,2.4-.18,7a42.56,42.56,0,0,0-.1,4.8c.06,1.36.1,2.47.1,3.33,0,.49.12.8.37.92.24-.24.36-.43.36-.55L64.15,59q-.18-3.69.18-11.09l.37-5c.25-3.69.5-6.53.74-8.5Q66,27.92,67.48,19.78ZM65.07,76.89l-.74-12.57-.36.19a1,1,0,0,0-.19.74l.55,8.5a22,22,0,0,1,.37,3c.13,0,.19.06.19.18Zm2.78-20a.85.85,0,0,0,.55.92l.93-.74q1.1-.91,5.72-6.09A58,58,0,0,0,83.56,37l1.1-2.77A3.12,3.12,0,0,1,85,32.9l.56-1.66a14,14,0,0,0,.65-2.5c.18-1,.33-1.81.46-2.31A15.43,15.43,0,0,0,87,22.55c-.07-1.48-.1-2.46-.1-2.95V19H86.7a5.4,5.4,0,0,0-.19,1.67v-1.3a6.53,6.53,0,0,1,.19-1.66l-.37-.56a1,1,0,0,0,0-1.11v1.11l-.19-1.11a42.58,42.58,0,0,0-2.21-7.39,11.57,11.57,0,0,0-4.62-4.8h-.74l-2,1.66L75.24,6.84A9.58,9.58,0,0,0,74.13,9c-.37.92-.68,1.63-.92,2.12l-2,6.29q-.56,2.78-1.29,7a59.9,59.9,0,0,0-.83,6.84c-.19,2.59-.34,4.37-.46,5.36q-.37,4.07-.74,12.2ZM68,16.45h.19L68,16.27Zm7,51.94h.19v-.74h-.19Zm.56,2a2,2,0,0,0-.19-.92.17.17,0,0,0-.18-.19l-.19.19a2,2,0,0,1,.19.92Zm7.21,14.42a2.16,2.16,0,0,0-.19,1,2.39,2.39,0,0,1-.18,1Zm.18-.93-.18.93v-.93a3,3,0,0,1,.37-1.66A5.33,5.33,0,0,0,83,83.91Zm0-1.66a4.63,4.63,0,0,0,.19-1.66A1.54,1.54,0,0,1,83,82.25ZM84.11,75h.19v.19A.17.17,0,0,1,84.11,75ZM85,71.71l-.18.19A.17.17,0,0,1,85,71.71Zm0-.18v0Zm.37-1.11V71C85.16,70.85,85.16,70.67,85.4,70.42Z"/><path d="M82.3,93.08a2.45,2.45,0,0,1-.71-.12L80,92.34l-.07-.13a61.23,61.23,0,0,1-3.16-7.63c-.26-1.26-.6-2.62-1-4.07s-.83-3.15-1.21-5c-.07-.2-.28-1.19-1.11-6.85a1.25,1.25,0,0,0-.1-.58c-.56.18-1.51,1.11-2.49,5a34.41,34.41,0,0,0-1.1,9.78,2.07,2.07,0,0,1-1,1.8c-1.44,1-2.42.72-3,0a3.09,3.09,0,0,1-1-1.42c-.14-.41-.36-1.36-.67-2.84-.38-1.8-.55-2.48-.64-2.73l-.57-5.81a51.67,51.67,0,0,1-.37-5.21l-.37-5V51.75A120.11,120.11,0,0,1,63,37.66a160.5,160.5,0,0,1,2.59-17A60.33,60.33,0,0,1,69,9.84a28.72,28.72,0,0,1,3-5.07,9.48,9.48,0,0,1,4.67-2.92,10.28,10.28,0,0,1,2.29-.37A6.19,6.19,0,0,1,84,4a17.12,17.12,0,0,1,3.2,6,42.51,42.51,0,0,1,1.5,10.84,44,44,0,0,1-.94,8.57A52.22,52.22,0,0,1,76.26,52.37,104.63,104.63,0,0,1,69,60.15a1.67,1.67,0,0,0-.64,1.51q0,4.74.16,7.27c.27-.55.67-1.38,1.26-2.64,1.2-2.6,2.67-4.25,4.36-4.91a3,3,0,0,1,1.24-.21A2.54,2.54,0,0,1,78,62.84a4.79,4.79,0,0,1,1,2.16l.73,3.87c.74,3.67,1.24,6.73,1.49,9.09l.73,5.7.78-1.58a4.31,4.31,0,0,0,.14-1.49V78.26l.72,2.16.21-1.19.59-3.63h0a.54.54,0,0,1-.56-.56v-.37h.71l0-.23a3,3,0,0,0-.34-.89L83.87,73h.83l.06-.48-.29.29V71.9a.52.52,0,0,1,.31-.5l.16-.34a.51.51,0,0,1-.09-.22.72.72,0,0,1,.17-.55l.57-4.17A1.3,1.3,0,0,1,87,65.06a1.06,1.06,0,0,1,1.2,1.11c-.13.58-.25,1.25-.37,2.09s-.25,1.56-.38,2.07a103.9,103.9,0,0,0-1.65,11c-.74,4.91-1.24,8-1.49,9.09l-.56,1.7A1.63,1.63,0,0,1,82.3,93.08Zm-1.8-1.33,1.34.5a.91.91,0,0,0,1.21-.4l.52-1.59c.24-1.07.73-4.11,1.46-9a100.49,100.49,0,0,1,1.68-11.14c.11-.47.23-1.14.36-2a20.34,20.34,0,0,1,.37-2.07c0-.12,0-.27-.46-.27s-.6.21-.66.45l-.52,3.86a.81.81,0,0,1,0,1v.22h.16l-.16.16v.08l0,0-.17.17,0,0-.24,2h-.31a2.2,2.2,0,0,1,.16.74L85,76l-.63,3.75,0,0,0,.13-.28,1.54c-.25,2.48-.49,4.3-.74,5.55l-1.3,3V88.5l-.48,1L82,87.09a1.08,1.08,0,0,1-.51-.83,2.1,2.1,0,0,1-.19-1.05l-.92-7.16c-.25-2.35-.74-5.38-1.47-9l-.74-3.89a4.07,4.07,0,0,0-.85-1.87l-.06-.1a1.79,1.79,0,0,0-1.87-1.24,2.14,2.14,0,0,0-.94.15c-1.53.59-2.86,2.11-4,4.54-1.86,4-2,4-2.28,4h-.38V69.5c-.12-1.71-.18-4.26-.18-7.77a2.33,2.33,0,0,1,.85-2.11c3.3-3.3,5.71-5.9,7.18-7.73A51.55,51.55,0,0,0,87.07,29.31,43.23,43.23,0,0,0,88,20.89a41.5,41.5,0,0,0-1.47-10.62,16,16,0,0,0-3.06-5.76,5.41,5.41,0,0,0-4.52-2.28,9.74,9.74,0,0,0-2.13.36,8.64,8.64,0,0,0-4.26,2.67,27.66,27.66,0,0,0-2.88,4.88c-.73,1.76-1.37,3.54-1.92,5.31l1.37,1.38H67.66V15.74q-.78,2.53-1.29,5-.32,1.54-.6,3.06.27-1.44.6-2.85a12,12,0,0,0,.74-2.93l0-.12.08-.09a.73.73,0,0,0,.26-.47h.75a10.4,10.4,0,0,1-.38,2.48c-1,5.36-1.65,10.26-2,14.55-.25,2-.49,4.75-.74,8.5l-.37,5c-.25,4.88-.31,8.59-.19,11l.19,2.21a1.23,1.23,0,0,1-.48.85l-.19.19-.24-.12a1.27,1.27,0,0,1-.58-1.26c0-.84,0-1.92-.09-3.31a45.78,45.78,0,0,1,.09-4.85c0-3.1.06-5.41.19-7L64.15,36l.55-5.19c.17-1.55.39-3.1.64-4.63-.7,4-1.22,7.9-1.56,11.54a121,121,0,0,0-.92,14v9.8l.37,5a47.57,47.57,0,0,0,.37,5.16l.55,5.74c.11.31.34,1.25.64,2.73.38,1.8.56,2.48.64,2.73a2.3,2.3,0,0,0,.78,1.1l.1.11a.88.88,0,0,0,.8.38A2.26,2.26,0,0,0,68.29,84,1.35,1.35,0,0,0,69,82.8a35.16,35.16,0,0,1,1.12-10c.92-3.63,2-5.4,3.28-5.54l.11,0,.1,0a1.29,1.29,0,0,1,.58,1.26c.75,5.11,1,6.48,1.09,6.72q.57,2.85,1.2,5c.43,1.47.77,2.85,1,4.09A58.13,58.13,0,0,0,80.5,91.75Zm1.41-7.88.17,1.29c0,.59.08.71.09.72l.06.06,0-.12a2.71,2.71,0,0,1,.18-1.07v-.84a5.74,5.74,0,0,1,0-.6ZM84.3,75h.1l0-.13a.23.23,0,0,0-.12-.06ZM65.47,77.26h-1v-.18h-.18v-.37a21.68,21.68,0,0,0-.37-2.9l-.55-8.54a1.39,1.39,0,0,1,.29-1l.1-.07.88-.44ZM76,70.8H74.86v-.38a1.88,1.88,0,0,0-.14-.76l-.12-.24.48-.48h.16a.52.52,0,0,1,.55.46,2.48,2.48,0,0,1,.19,1Zm-.37-2h-.93V67.27h.93ZM68.48,58.27l-.2-.06a1.21,1.21,0,0,1-.81-1.28V48.8c.25-5.44.5-9.55.74-12.23.13-1,.28-2.82.46-5.36a63.5,63.5,0,0,1,.84-6.88c.48-2.76.92-5.12,1.3-7l2-6.32c.26-.54.57-1.24.93-2.15a9.86,9.86,0,0,1,1.16-2.21l1.33-1.33,2.16-1.78h1l.09.05a12.11,12.11,0,0,1,4.76,5,42.89,42.89,0,0,1,2.15,7l.23.35a1.3,1.3,0,0,1,.13,1.3l.33.5,0,.16a6.23,6.23,0,0,0-.14.83h.34v.93c0,.51,0,1.56.09,2.94a15.38,15.38,0,0,1-.29,4c-.12.48-.27,1.22-.46,2.29a13.49,13.49,0,0,1-.66,2.57L85.39,33A2.76,2.76,0,0,0,85,34.2l0,.14L83.9,37.11a58,58,0,0,1-8.56,14.14c-3.13,3.51-5,5.52-5.78,6.15Zm10.22-54L76.77,5.84,75.5,7.11a9.28,9.28,0,0,0-1,2c-.37.93-.69,1.65-.94,2.15l-2,6.23c-.37,1.86-.8,4.22-1.28,7a59.4,59.4,0,0,0-.83,6.8c-.18,2.55-.34,4.36-.46,5.38-.25,2.66-.49,6.76-.74,12.16v8.12a.68.68,0,0,0,.14.48l.73-.59c.71-.59,2.63-2.63,5.68-6a57.41,57.41,0,0,0,8.44-14l1.08-2.7a3.48,3.48,0,0,1,.41-1.39l.53-1.61a12.42,12.42,0,0,0,.64-2.44c.19-1.08.34-1.85.46-2.34a14.58,14.58,0,0,0,.27-3.77c0-.73,0-1.36-.07-1.86h-.39v-1.3a7.14,7.14,0,0,1,.16-1.59l-.42-.63.05-.08-.16-1a42,42,0,0,0-2.19-7.32A11.21,11.21,0,0,0,79.2,4.26Z"/><path d="M116,65.34c.19.18.21.46.09.83a2.91,2.91,0,0,1-.37,1.29,79.72,79.72,0,0,1-6.28,11.46,11.92,11.92,0,0,1-3,2.77,8.18,8.18,0,0,1-2.77.74A3.41,3.41,0,0,1,100.56,81q-1.49-2.22-2.4-3.33a3.38,3.38,0,0,1-.93,1.48A9.08,9.08,0,0,1,93,83.17a4.62,4.62,0,0,1-2,.56A3.46,3.46,0,0,1,88.73,83q-1.11-.37-1.29-1.11a3.4,3.4,0,0,0-1.11-1.48,4.06,4.06,0,0,1-1.11-1.29,14.87,14.87,0,0,1-1.3-7.76A16,16,0,0,1,89.47,61a12.91,12.91,0,0,1,3.33-2.22,7.86,7.86,0,0,1,2.77-.56,6.15,6.15,0,0,1,4.43,2,6.08,6.08,0,0,1,1.48,1.66,13.51,13.51,0,0,1,2,8.69,3,3,0,0,0-.19,1.29,2.75,2.75,0,0,1-.74,1.48,1.5,1.5,0,0,1-.37-1.11,5.9,5.9,0,0,1,.09-.74,1,1,0,0,0-.27-.92c-.13,0-.19.06-.19.18-.12.49-.28,1.17-.46,2A5.34,5.34,0,0,0,101.3,75a8.83,8.83,0,0,0,.55,3.14,2.25,2.25,0,0,0,2,1.3,2.33,2.33,0,0,0,1.66-.74A4.09,4.09,0,0,0,107,77.07l6.28-10.35A7.46,7.46,0,0,1,115,64.88,2.16,2.16,0,0,1,116,65.34ZM85.4,71.71a3.71,3.71,0,0,0,.19,2.22A4.56,4.56,0,0,0,85.4,71.71ZM86,67.65a3.85,3.85,0,0,0-.37,2.22A3.85,3.85,0,0,0,86,67.65Zm15.34,1.29a15.53,15.53,0,0,0-2-5.17,4,4,0,0,0-1.66-1.48,2.36,2.36,0,0,0-2.22,0c-1.11.74-1.72,1.17-1.84,1.29a12.33,12.33,0,0,0-4.07,8.87,21.7,21.7,0,0,0,.37,3.15c.12.37.43,1.23.92,2.58l.74.74.93-.55a9.17,9.17,0,0,0,2.77-3l3.14-4.8A3.63,3.63,0,0,1,100,68.94ZM91.41,82.06a1.56,1.56,0,0,0,.65-.18l-.37-.19h-.56C91.13,81.94,91.23,82.06,91.41,82.06Zm4.44-21.34a1.67,1.67,0,0,0-.65.46A1.58,1.58,0,0,0,96.49,61C96.24,60.75,96,60.66,95.85,60.72Zm9.33,20.61a4.78,4.78,0,0,0-1.11-.19,4.7,4.7,0,0,0-1.11.19c0,.12.19.3.56.55A2.31,2.31,0,0,0,105.18,81.33Z"/><path d="M91,84.1a3.82,3.82,0,0,1-2.4-.78A2,2,0,0,1,87.07,82a3,3,0,0,0-1-1.27c-.15-.06-.48-.32-1.19-1.38a15.28,15.28,0,0,1-1.36-8,16.52,16.52,0,0,1,5.67-10.6,13.71,13.71,0,0,1,3.41-2.27,8.31,8.31,0,0,1,2.94-.59,6.6,6.6,0,0,1,4.7,2.14,6.48,6.48,0,0,1,1.53,1.74,13.9,13.9,0,0,1,2.09,8.92l0,.12a2.79,2.79,0,0,0-.14,1.13,3,3,0,0,1-.83,1.71l-.26.33-.29-.29a1.75,1.75,0,0,1-.48-1.19l-.09.44a5,5,0,0,0-.09,2.07,8.7,8.7,0,0,0,.53,3.08,1.87,1.87,0,0,0,3.08.42l.1-.07a3.7,3.7,0,0,0,1.32-1.51L113,66.53a8,8,0,0,1,1.74-1.94l.15-.12.19,0a2.75,2.75,0,0,1,1.19.56,1.1,1.1,0,0,1,.2,1.16,3.57,3.57,0,0,1-.41,1.4,79.71,79.71,0,0,1-6.31,11.5A12.63,12.63,0,0,1,106.67,82a8.58,8.58,0,0,1-3,.8,3.77,3.77,0,0,1-3.46-1.66c-.77-1.15-1.43-2.09-2-2.78a4.69,4.69,0,0,1-.73,1,9.59,9.59,0,0,1-4.39,4.18A5,5,0,0,1,91,84.1Zm4.62-25.5a7.6,7.6,0,0,0-2.64.53,12.53,12.53,0,0,0-3.2,2.13A15.76,15.76,0,0,0,84.3,71.39,14.45,14.45,0,0,0,85.56,79c.59.88.85,1.07.93,1.11a3.73,3.73,0,0,1,1.29,1.68c.11.41.46.69,1.07.89l.11.07a3.36,3.36,0,0,0,3.85.14,8.87,8.87,0,0,0,4.09-3.9l.07-.1a2.87,2.87,0,0,0,.82-1.3l.18-.72.47.57a40.76,40.76,0,0,1,2.43,3.36,2.75,2.75,0,0,0,2.2,1.27c-.34-.25-.48-.47-.48-.69V81l.28-.07a5.46,5.46,0,0,1,1.2-.19,5.64,5.64,0,0,1,1.2.19l.64.16-.47.47-.15.14c.32-.1.66-.23,1-.38a12.16,12.16,0,0,0,2.81-2.66,80.5,80.5,0,0,0,6.23-11.38,2.61,2.61,0,0,0,.34-1.14l0-.12c0-.15.09-.35,0-.45a1.83,1.83,0,0,0-.66-.31,7,7,0,0,0-1.44,1.63l-6.28,10.35A4.38,4.38,0,0,1,105.77,79a2.61,2.61,0,0,1-4.24-.67,9.26,9.26,0,0,1-.61-3.33,5.91,5.91,0,0,1,.1-2.29c.19-.87.34-1.55.47-2a.5.5,0,0,1,.55-.47h.15l.11.11a1.4,1.4,0,0,1,.38,1.25,4.14,4.14,0,0,0-.08.68,1.73,1.73,0,0,0,0,.41,1.58,1.58,0,0,0,.32-.78,3.74,3.74,0,0,1,.19-1.4,13.26,13.26,0,0,0-2-8.39,5.81,5.81,0,0,0-1.39-1.56A5.91,5.91,0,0,0,95.57,58.6Zm6.66,12.19,0,0A.08.08,0,0,0,102.23,70.79ZM91.41,82.44a.66.66,0,0,1-.65-.75v-.37l1.09,0,1,.52-.67.34A1.8,1.8,0,0,1,91.41,82.44Zm0-.75Zm0-2.29-1-1.09c-.5-1.36-.81-2.23-.93-2.6a22.42,22.42,0,0,1-.39-3.26,12.77,12.77,0,0,1,4.18-9.13A14.88,14.88,0,0,1,95.18,62a2.73,2.73,0,0,1,2.59,0A4.43,4.43,0,0,1,99.6,63.6a16.16,16.16,0,0,1,2.07,5.27l.09.45h-1.67a3.19,3.19,0,0,0-1.41,1.45l-3.17,4.85a9.4,9.4,0,0,1-2.88,3.06ZM91.09,78l.47.47.67-.4a8.8,8.8,0,0,0,2.65-2.83L98,70.4a3.93,3.93,0,0,1,1.81-1.79l.16,0h.83A15.44,15.44,0,0,0,99,64a3.77,3.77,0,0,0-1.54-1.35,2,2,0,0,0-1.86,0c-1.47,1-1.71,1.19-1.75,1.23a12.07,12.07,0,0,0-4,8.6,22.08,22.08,0,0,0,.37,3.08C90.31,75.84,90.61,76.67,91.09,78Zm-5.29-3-.52-.79A3.89,3.89,0,0,1,85,71.67L85.22,70l0,.09,0-.13a4.25,4.25,0,0,1,.39-2.44l.48-1.12.24,1.2a4.22,4.22,0,0,1-.4,2.43l-.39.92.22.67A4.91,4.91,0,0,1,86,74Zm9.88-13.31a2.24,2.24,0,0,1-.57-.08l-.64-.16.46-.46a2.32,2.32,0,0,1,.79-.56h0a1,1,0,0,1,1,.37l.32.32-.38.26A1.85,1.85,0,0,1,95.68,61.62Z"/><path d="M147.87,18.12a23.77,23.77,0,0,1-.74,6.1,29.85,29.85,0,0,1-2.59,7.2,64.32,64.32,0,0,1-10.35,15.34,80.14,80.14,0,0,1-9.79,9.62,2.4,2.4,0,0,0-1.3,2.21c0,1.11-.12,2.9-.37,5.36v4.44a34.6,34.6,0,0,0,4.07-4.62l3.14-3.51c.49-.49.86-.74,1.11-.74a2.75,2.75,0,0,1,1.11.37c.62.37.86.77.74,1.2a4.28,4.28,0,0,0-.18.83,6.59,6.59,0,0,1-1.11,1.66c-.62.74-1.36,1.61-2.22,2.59s-1.76,2.31-3,4a18.89,18.89,0,0,0-2.13,3q3.15,7.59,6.29,11.09a10.28,10.28,0,0,0,3.14,2.22,7.48,7.48,0,0,0,1.29.37,2.15,2.15,0,0,0,1.48-.74l1.29-2c.25-.62.68-2,1.3-4.07a75.67,75.67,0,0,0,2.59-13.68c.12-.49.67-.73,1.66-.73s1.29.24,1.29.73a106,106,0,0,1-2.21,12.2l-1.11,4.81-1.48,3a4.34,4.34,0,0,1-4.25,2.21h-.56a9.7,9.7,0,0,1-7-2.77,19.24,19.24,0,0,1-3.7-5l-.37-.74a2.89,2.89,0,0,0-.55-.74c-.12,0-.31.13-.56.37a22.7,22.7,0,0,0-1.47,5.92,60,60,0,0,1-.56,8.13l-.55,5-.56,1.29c-.12.49-.49.62-1.11.37a1.68,1.68,0,0,1-.46-.92,5.9,5.9,0,0,1-.09-.74v-.83a1.85,1.85,0,0,0-.37-1,6.68,6.68,0,0,1-.18,1.85l-.19,1.48-1.48.37a3.21,3.21,0,0,1-.37-.47,1.14,1.14,0,0,1-.18-.64,10,10,0,0,1-.37-2L114.05,88l-.56-14.79q0-3.87.19-5.91l.37-8.13a38.18,38.18,0,0,1,.37-4.25l.37-3.88c.24-3.21.49-5.67.74-7.4a109.15,109.15,0,0,1,4.8-22.18,54.7,54.7,0,0,1,3.51-8.5,24.33,24.33,0,0,1,5.55-6.65l.92-.92.74-.37c.25.24.43.37.56.37a8.21,8.21,0,0,1,3.23-.56h3q4.62-.55,7.76,4.44a17.16,17.16,0,0,1,2,5.73A20.81,20.81,0,0,1,147.87,18.12Zm-29.2,56.37a5.34,5.34,0,0,0-.56-2.41,95.27,95.27,0,0,0-.36,11.46c0,.12.12.19.36.19a2.13,2.13,0,0,0,.37-1.48l.19-5.36Zm-.56,18.94a3.87,3.87,0,0,0-.18-1.2l-.18,1.29v1.67A6.12,6.12,0,0,0,118.11,93.43Zm1.11-31.51V60.63c-.37.12-.55.3-.55.55a2.25,2.25,0,0,0-.19,2c.25.37.43.5.56.37A7,7,0,0,0,119.22,61.92Zm1.94-23.84a6,6,0,0,1-.09-.93.66.66,0,0,0-.18.47.64.64,0,0,1-.19.46q-1.11,8.51-1.29,12.57c-.25,2.21-.37,3.76-.37,4.62,0,.24.06.37.18.37a1.61,1.61,0,0,0,.56-1.11q.36-5.18.74-8.13l.55-7.4A1.51,1.51,0,0,0,121.16,38.08Zm.1-2.59v.92A1.21,1.21,0,0,0,121.26,35.49Zm20.88-24.76a10.11,10.11,0,0,0-3.7-3.15,3.14,3.14,0,0,0-2.58,0,8.25,8.25,0,0,0-3.33,2.59,16.65,16.65,0,0,0-3,4.62,40.16,40.16,0,0,0-2.21,6.84,67.61,67.61,0,0,0-2,12.94q-.55,4.24-1.29,14a8.61,8.61,0,0,0-.19,3h.56l.92-.74a68.31,68.31,0,0,0,11.46-13.31,61.75,61.75,0,0,0,5.55-10q2.21-5.91,2.21-9.24A16.05,16.05,0,0,0,142.14,10.73Zm-1.48,69.49h.19V80A.17.17,0,0,0,140.66,80.22Zm.37-1.85a1.67,1.67,0,0,0,.37-1.85A10.76,10.76,0,0,0,141,78.37Zm.74-2.77.19-.19h-.19Zm.65-4.9a3.34,3.34,0,0,0-.09,1.75,2.23,2.23,0,0,0-.19,1.48,4.88,4.88,0,0,0,.19-1.48l.18-.55c.25-1,.49-2.22.74-3.7v-.92c-.12,0-.31.68-.55,2A6.91,6.91,0,0,1,142.42,70.7Zm4.16-52.4-.37-2.22a36,36,0,0,0-.19,4.07L145.47,24a7.56,7.56,0,0,0,.92-3c.12-1.1.19-1.78.19-2Z"/><path d="M115.6,101l-.15-.15a2.8,2.8,0,0,1-.42-.52,1.52,1.52,0,0,1-.25-.85,9.52,9.52,0,0,1-.37-2L113.67,88l-.55-14.8c0-2.65.06-4.6.19-6l.36-8.12a38.85,38.85,0,0,1,.38-4.28l.36-3.87c.25-3.2.5-5.69.75-7.41A110.13,110.13,0,0,1,120,21.32a53.06,53.06,0,0,1,3.53-8.55A24.73,24.73,0,0,1,129.15,6l1-1,1-.49.19.19a1.88,1.88,0,0,0,.27.24,8.64,8.64,0,0,1,3.25-.53h3c3.17-.39,5.91,1.16,8.08,4.61a17.61,17.61,0,0,1,2.08,5.85,20.6,20.6,0,0,1,.2,3.22,24.07,24.07,0,0,1-.76,6.19,30.35,30.35,0,0,1-2.61,7.28A65.37,65.37,0,0,1,134.48,47a81.66,81.66,0,0,1-9.84,9.65,2.08,2.08,0,0,0-1.16,1.93c0,1.13-.12,2.89-.37,5.4v3.49a30.75,30.75,0,0,0,3.38-3.92L129.66,60c.61-.61,1-.87,1.39-.87a3.1,3.1,0,0,1,1.28.41c1,.6,1,1.22.93,1.64a4.59,4.59,0,0,0-.17.73l0,.12a6.39,6.39,0,0,1-1.17,1.78c-.63.74-1.37,1.61-2.23,2.6s-1.74,2.29-3,4a23.69,23.69,0,0,0-2,2.82c2,4.92,4.12,8.57,6.16,10.84a10.32,10.32,0,0,0,3,2.13,10.13,10.13,0,0,0,1.15.34,1.81,1.81,0,0,0,1.21-.64l1.24-2c.21-.55.64-1.9,1.25-4a75.24,75.24,0,0,0,2.57-13.61c.18-.73.86-1.08,2-1.08,1.45,0,1.67.7,1.67,1.11a108.16,108.16,0,0,1-2.23,12.29l-1.11,4.8-1.51,3a4.72,4.72,0,0,1-4.61,2.43h-.53A10.09,10.09,0,0,1,127.66,86a19.73,19.73,0,0,1-3.78-5.1c-.14-.27-.26-.51-.37-.74a2.42,2.42,0,0,0-.31-.45l-.14.12a22.62,22.62,0,0,0-1.43,5.73,60.82,60.82,0,0,1-.56,8.16l-.58,5.09-.55,1.29a1,1,0,0,1-.48.62,1.32,1.32,0,0,1-1.11-.05l-.13-.08a2.14,2.14,0,0,1-.57-1.13h0l-.12,1ZM130.53,5.67l-.88.88a24.23,24.23,0,0,0-5.48,6.58,53.57,53.57,0,0,0-3.48,8.43,110,110,0,0,0-4.79,22.11c-.25,1.71-.49,4.18-.74,7.37l-.37,3.89a39.79,39.79,0,0,0-.37,4.22l-.37,8.15c-.12,1.34-.18,3.32-.18,5.89L114.42,88l.74,9.42a9.75,9.75,0,0,0,.36,2,1,1,0,0,0,.13.53c.06.09.13.17.19.25l1-.25.15-1.23a6.14,6.14,0,0,0,.19-1.8V95.61l.18.28V93.52l.41-2.93.51,1.52a4.39,4.39,0,0,1,.2,1.32,6.27,6.27,0,0,1-.39,1.87l-.37,1.13.14.21a2.23,2.23,0,0,1,.43,1.23v.83a5.29,5.29,0,0,0,.09.67,1.34,1.34,0,0,0,.31.67.61.61,0,0,0,.42,0c.06,0,.09-.12.11-.19l.55-1.3.55-4.93a59.55,59.55,0,0,0,.55-8.09,23.51,23.51,0,0,1,1.5-6l.09-.13c.34-.34.58-.48.82-.48h.16l.11.11a3.26,3.26,0,0,1,.62.83c.11.24.23.47.35.7a18.86,18.86,0,0,0,3.65,4.94,9.37,9.37,0,0,0,6.73,2.66h.58a4,4,0,0,0,3.93-2l1.46-2.93L142,78.47c.26-1.09.51-2.18.74-3.27l-1,1,.07.19a2.05,2.05,0,0,1-.46,2.23l-.64.64v-.9a8.8,8.8,0,0,1,.38-1.94l.31-1.25.05.13V75h.72l-.33-1a2.45,2.45,0,0,1,.14-1.63,4,4,0,0,1,.13-1.82h0a6.36,6.36,0,0,0,.26-1.29c.38-2.11.54-2.41.93-2.41h.38v1.3c-.26,1.56-.51,2.81-.76,3.79l-.15.48h0l0,0a5,5,0,0,1-.2,1.52l-.33,1h.56c.61-2.92,1.09-5.84,1.44-8.73,0-.2-.31-.32-.92-.32-.44,0-1.2.06-1.3.45a75.16,75.16,0,0,1-2.59,13.7c-.63,2.12-1.05,3.46-1.31,4.1l-1.32,2.09a2.56,2.56,0,0,1-1.8.92,5.72,5.72,0,0,1-1.41-.39,11.07,11.07,0,0,1-3.29-2.31c-2.13-2.38-4.26-6.14-6.36-11.21l-.06-.13,0-.13A14.59,14.59,0,0,1,126,69.91q1.93-2.49,3-4c.87-1,1.61-1.87,2.23-2.61a6.09,6.09,0,0,0,1-1.49,5.68,5.68,0,0,1,.2-.87c0-.09.1-.37-.57-.77a2.46,2.46,0,0,0-.92-.32s-.22,0-.84.63L127.08,64A35.09,35.09,0,0,1,123,68.65l-.64.64V64c.25-2.48.37-4.27.37-5.36a2.76,2.76,0,0,1,1.48-2.54,80.82,80.82,0,0,0,9.7-9.53A64.47,64.47,0,0,0,144.2,31.27a29.55,29.55,0,0,0,2.56-7.13,23.3,23.3,0,0,0,.74-6,21.48,21.48,0,0,0-.18-3.08,16.89,16.89,0,0,0-2-5.59c-2-3.23-4.46-4.62-7.4-4.27h-3.1a7.88,7.88,0,0,0-3.09.52l-.14,0a1,1,0,0,1-.62-.29ZM118.27,84.1h-.16c-.7,0-.74-.46-.74-.56a96.06,96.06,0,0,1,.37-11.49l.11-1.32.6,1.19a5.71,5.71,0,0,1,.59,2.57v2.4l-.18,5.37a2.42,2.42,0,0,1-.48,1.73Zm-.15-.58h0Zm.17-8.84c-.19,2.91-.25,5.59-.2,8,0-.12,0-.25,0-.41l.18-5.37Zm22.93,5.91h-.93v-.37a.54.54,0,0,1,.56-.56h.37Zm-.37-.37v.19a.23.23,0,0,0,.19-.19ZM118.93,64h-.05c-.24,0-.46-.2-.71-.58l0-.1a2.7,2.7,0,0,1,.18-2.27,1,1,0,0,1,.8-.78l.5-.17v1.82a7.26,7.26,0,0,1-.2,1.75l0,.1-.08.08A.51.51,0,0,1,118.93,64Zm-.08-2.4a2,2,0,0,0-.06,1.29,7.54,7.54,0,0,0,.06-1Zm.53-5.59h-.16c-.13,0-.56,0-.56-.74,0-.89.13-2.46.38-4.67.11-2.66.55-6.9,1.29-12.57l0-.13.09-.09a.25.25,0,0,0,.07-.19,1,1,0,0,1,.3-.73l.07-.08V33.87l.71,1.46a1.5,1.5,0,0,1,0,1.2l-.16.62a6,6,0,0,0,.08.86h0a1.92,1.92,0,0,1-.09,1.08l-.55,7.32c-.24,2-.49,4.69-.74,8.13a1.94,1.94,0,0,1-.66,1.35Zm.85-10.86q-.14,1.38-.24,2.55c.05-.48.1-.94.16-1.35Zm4.3,6.79h-1l-.06-.31a9.07,9.07,0,0,1,.19-3.09c.48-6.42.92-11.16,1.29-14a69.12,69.12,0,0,1,2-13,40.43,40.43,0,0,1,2.24-6.88,16.89,16.89,0,0,1,3-4.73,8.62,8.62,0,0,1,3.47-2.69,3.54,3.54,0,0,1,2.87,0,10.54,10.54,0,0,1,3.85,3.26l0,0a16.7,16.7,0,0,1,2.46,7.75c0,2.29-.76,5.44-2.24,9.41a62.58,62.58,0,0,1-5.59,10,69.65,69.65,0,0,1-11.51,13.38Zm-.36-.75h.1l.82-.65a68.86,68.86,0,0,0,11.38-13.22A62.46,62.46,0,0,0,142,27.4c1.45-3.87,2.19-6.93,2.19-9.1a15.92,15.92,0,0,0-2.34-7.36,9.73,9.73,0,0,0-3.55-3,2.79,2.79,0,0,0-2.28,0,7.9,7.9,0,0,0-3.18,2.47,16.34,16.34,0,0,0-2.9,4.54,39.71,39.71,0,0,0-2.2,6.77,67.18,67.18,0,0,0-2,12.88c-.38,2.88-.81,7.6-1.3,14A9.69,9.69,0,0,0,124.17,51.19Zm20.65-25.26.83-5.83a39,39,0,0,1,.18-4.06l.3-2.67L147,18.3V19c0,.26,0,.88-.19,2.08a7.84,7.84,0,0,1-1,3.1Z"/><path d="M172,65.34a.78.78,0,0,1,.09.83,2.91,2.91,0,0,1-.37,1.29,79.72,79.72,0,0,1-6.28,11.46,11.92,11.92,0,0,1-3,2.77,8.24,8.24,0,0,1-2.77.74A3.41,3.41,0,0,1,156.56,81a41.09,41.09,0,0,0-2.41-3.33,3.26,3.26,0,0,1-.92,1.48A9.08,9.08,0,0,1,149,83.17a4.62,4.62,0,0,1-2,.56,3.44,3.44,0,0,1-2.22-.74,1.76,1.76,0,0,1-1.3-1.11,3.3,3.3,0,0,0-1.1-1.48,4.06,4.06,0,0,1-1.11-1.29,14.87,14.87,0,0,1-1.3-7.76A16,16,0,0,1,145.47,61a13,13,0,0,1,3.32-2.22,8,8,0,0,1,2.78-.56,6.17,6.17,0,0,1,4.43,2,6.08,6.08,0,0,1,1.48,1.66,13.57,13.57,0,0,1,2,8.69,3.19,3.19,0,0,0-.18,1.29,2.75,2.75,0,0,1-.74,1.48,1.5,1.5,0,0,1-.37-1.11,5.9,5.9,0,0,1,.09-.74,1,1,0,0,0-.27-.92c-.13,0-.19.06-.19.18-.12.49-.28,1.17-.46,2A5.34,5.34,0,0,0,157.3,75a8.83,8.83,0,0,0,.55,3.14,2.25,2.25,0,0,0,2,1.3,2.33,2.33,0,0,0,1.67-.74A4.09,4.09,0,0,0,163,77.07l6.28-10.35A7.46,7.46,0,0,1,171,64.88,2.21,2.21,0,0,1,172,65.34ZM141.4,71.71a3.71,3.71,0,0,0,.19,2.22A4.56,4.56,0,0,0,141.4,71.71Zm.56-4.06a3.85,3.85,0,0,0-.37,2.22A3.85,3.85,0,0,0,142,67.65Zm15.34,1.29a15.53,15.53,0,0,0-2-5.17,4,4,0,0,0-1.66-1.48,2.36,2.36,0,0,0-2.22,0c-1.11.74-1.72,1.17-1.85,1.29a12.36,12.36,0,0,0-4.06,8.87,21.7,21.7,0,0,0,.37,3.15c.12.37.43,1.23.92,2.58l.74.74.92-.55a9.19,9.19,0,0,0,2.78-3l3.14-4.8A3.63,3.63,0,0,1,156,68.94Zm-9.89,13.12a1.56,1.56,0,0,0,.65-.18l-.37-.19h-.56C147.13,81.94,147.22,82.06,147.41,82.06Zm4.43-21.34a1.72,1.72,0,0,0-.64.46,1.58,1.58,0,0,0,1.29-.18C152.24,60.75,152,60.66,151.84,60.72Zm9.34,20.61a4.86,4.86,0,0,0-1.11-.19,4.7,4.7,0,0,0-1.11.19c0,.12.18.3.55.55A2.32,2.32,0,0,0,161.18,81.33Z"/><path d="M147,84.1a3.82,3.82,0,0,1-2.4-.78A2,2,0,0,1,143.07,82a3,3,0,0,0-1-1.27c-.15-.06-.48-.32-1.19-1.38a15.28,15.28,0,0,1-1.36-8,16.47,16.47,0,0,1,5.67-10.6,13.71,13.71,0,0,1,3.41-2.27,8.31,8.31,0,0,1,2.94-.59,6.6,6.6,0,0,1,4.7,2.14,6.48,6.48,0,0,1,1.53,1.74,14,14,0,0,1,2.09,8.92l0,.12a2.71,2.71,0,0,0-.15,1.13,2.94,2.94,0,0,1-.82,1.71l-.26.33-.29-.29a1.75,1.75,0,0,1-.48-1.19l-.09.44a5.16,5.16,0,0,0-.1,2.07,8.92,8.92,0,0,0,.54,3.08,1.87,1.87,0,0,0,1.68,1,1.89,1.89,0,0,0,1.4-.63l.1-.07a3.7,3.7,0,0,0,1.32-1.51L169,66.53a8,8,0,0,1,1.74-1.94l.15-.12.18,0a2.63,2.63,0,0,1,1.19.56,1.08,1.08,0,0,1,.21,1.16,3.57,3.57,0,0,1-.41,1.4,80.69,80.69,0,0,1-6.31,11.5A12.63,12.63,0,0,1,162.67,82a8.64,8.64,0,0,1-3,.8,3.77,3.77,0,0,1-3.46-1.66c-.77-1.15-1.44-2.09-2-2.78a4.3,4.3,0,0,1-.72,1,9.59,9.59,0,0,1-4.39,4.18A5,5,0,0,1,147,84.1Zm4.62-25.5a7.56,7.56,0,0,0-2.64.53,12.53,12.53,0,0,0-3.2,2.13,15.76,15.76,0,0,0-5.43,10.13A14.45,14.45,0,0,0,141.56,79c.59.88.85,1.07.93,1.11a3.8,3.8,0,0,1,1.29,1.68c.11.41.46.69,1.07.89l.11.07a3.36,3.36,0,0,0,3.85.14,8.8,8.8,0,0,0,4.08-3.9l.07-.1a2.9,2.9,0,0,0,.83-1.3l.18-.72.47.57a40.76,40.76,0,0,1,2.43,3.36,2.75,2.75,0,0,0,2.2,1.27c-.34-.25-.49-.47-.49-.69V81l.29-.07a5.46,5.46,0,0,1,1.2-.19,5.64,5.64,0,0,1,1.2.19l.64.16-.47.47-.15.14c.31-.1.66-.23,1-.38a12.36,12.36,0,0,0,2.81-2.66,80.5,80.5,0,0,0,6.23-11.38,2.61,2.61,0,0,0,.34-1.14l0-.12c.05-.15.09-.35,0-.45a1.64,1.64,0,0,0-.66-.31,6.93,6.93,0,0,0-1.43,1.63l-6.28,10.35A4.45,4.45,0,0,1,161.77,79a2.62,2.62,0,0,1-4.25-.67,9.47,9.47,0,0,1-.6-3.33,5.72,5.72,0,0,1,.1-2.29c.19-.87.34-1.55.47-2a.5.5,0,0,1,.55-.47h.15l.11.11a1.4,1.4,0,0,1,.38,1.25,4.14,4.14,0,0,0-.08.68,1.73,1.73,0,0,0,0,.41,1.52,1.52,0,0,0,.31-.78,3.7,3.7,0,0,1,.2-1.4,13.26,13.26,0,0,0-2-8.39,5.81,5.81,0,0,0-1.39-1.56A5.91,5.91,0,0,0,151.57,58.6Zm6.66,12.19,0,0A.08.08,0,0,0,158.23,70.79ZM147.41,82.44a.66.66,0,0,1-.65-.75v-.37l1.09,0,1,.52-.67.34A1.83,1.83,0,0,1,147.41,82.44Zm0-.75Zm0-2.29-1-1.09c-.5-1.36-.81-2.23-.93-2.6a22.42,22.42,0,0,1-.39-3.26,12.77,12.77,0,0,1,4.18-9.13,15,15,0,0,1,1.9-1.34,2.75,2.75,0,0,1,2.6,0,4.43,4.43,0,0,1,1.83,1.65,15.92,15.92,0,0,1,2.06,5.27l.09.45h-1.66a3.26,3.26,0,0,0-1.42,1.45l-3.16,4.85a9.5,9.5,0,0,1-2.88,3.06ZM147.09,78l.47.47.67-.4a8.8,8.8,0,0,0,2.65-2.83L154,70.4a4,4,0,0,1,1.81-1.79l.17,0h.83A15.21,15.21,0,0,0,154.94,64a3.8,3.8,0,0,0-1.53-1.35,2,2,0,0,0-1.86,0c-1.47,1-1.71,1.19-1.75,1.23a12,12,0,0,0-4,8.6,22.08,22.08,0,0,0,.37,3.08C146.31,75.84,146.61,76.67,147.09,78Zm-5.29-3-.53-.79a4,4,0,0,1-.24-2.47l.18-1.69,0,.09,0-.13a4.16,4.16,0,0,1,.39-2.44l.48-1.12.23,1.2a4.12,4.12,0,0,1-.39,2.43l-.39.92.22.67A5,5,0,0,1,142,74Zm9.87-13.31a2.23,2.23,0,0,1-.56-.08l-.64-.16.46-.46a2.32,2.32,0,0,1,.79-.56h0a1,1,0,0,1,1,.37l.33.32-.38.26A1.86,1.86,0,0,1,151.67,61.62Z"/><path d="M170.05,52.86a2.83,2.83,0,0,1,1.75.19,14.44,14.44,0,0,0,1.39.55,3.28,3.28,0,0,0,.18,1.3c0,1.23.13,3.08.37,5.54V61c0,.24.19.49.56.73a.5.5,0,0,0,.65-.09.73.73,0,0,1,.46-.27l2.4-2.41,2.77-1.66a9.45,9.45,0,0,1,3.33-.56h1.29l.37.37a10.53,10.53,0,0,0-.74.84,2.18,2.18,0,0,1-1.29.64A9.88,9.88,0,0,0,179.66,61a27.4,27.4,0,0,0-5,7.2,5.78,5.78,0,0,0-.37,1.67c0,4.56-.07,7.94-.19,10.16a48.52,48.52,0,0,1-.37,5,4,4,0,0,1-1.47,2.4,1.75,1.75,0,0,1-1.48.74,1.58,1.58,0,0,1-1.3-.74c-.61-.49-.92-1.47-.92-3l.55-9.8.37-5.17.19-2.22V62.47a29.16,29.16,0,0,0-.37-5,6.18,6.18,0,0,1,.09-2.31,11.16,11.16,0,0,0,.28-1.94Zm2.22,1.3c-.25,1.48-.37,2.34-.37,2.58a5.3,5.3,0,0,0,.55,2.41l.19-2A24,24,0,0,0,172.27,54.16Zm.18,6.28a7.79,7.79,0,0,0,0,3.33c0,.12.19.18.55.18V62.47A3.87,3.87,0,0,0,172.45,60.44Zm.19,23.29.27-.56c.06-.12,0-.24-.27-.37l-.37.37Zm0-10a9.39,9.39,0,0,0-.19,2.22v3.14a1.5,1.5,0,0,0,.37,1.11,10.25,10.25,0,0,0,.37-2.41A12.4,12.4,0,0,0,173,75.5C172.88,74.83,172.76,74.24,172.64,73.75Zm.36,7.76a.18.18,0,1,0-.36,0v.18Z"/><path d="M170.79,88.54a2,2,0,0,1-1.6-.89c-.65-.51-1-1.57-1-3.18l.56-9.82.55-7.4V62.47a28.56,28.56,0,0,0-.36-4.92A6.49,6.49,0,0,1,169,55.1a11.5,11.5,0,0,0,.27-1.87v-.15l.56-.56.12,0a3.2,3.2,0,0,1,2,.21l.16.07.15-.9.17,1q.5.21.87.33l.25.08v.27a2.62,2.62,0,0,0,.15,1.13l0,.17c0,1.23.12,3.08.37,5.5V61s0,.18.39.42c.07,0,.11,0,.17,0a1.18,1.18,0,0,1,.55-.36l2.31-2.32L180.39,57a9.61,9.61,0,0,1,3.52-.61h1.45l.74.74-.26.27a9.38,9.38,0,0,0-.71.8,2.53,2.53,0,0,1-1.52.78,9.49,9.49,0,0,0-3.69,2.3A27.34,27.34,0,0,0,175,68.37a5.22,5.22,0,0,0-.33,1.5c0,4.51-.06,7.93-.18,10.18,0,.32,0,.68,0,1.1h.11l-.11,0c-.06,1-.17,2.28-.34,3.86a4.32,4.32,0,0,1-1.59,2.63A2.09,2.09,0,0,1,170.79,88.54Zm-.74-35.15a13.56,13.56,0,0,1-.28,1.86,5.6,5.6,0,0,0-.09,2.16,29.27,29.27,0,0,1,.37,5.06v4.81l-.18,2.25-.37,5.17-.56,9.79a3.36,3.36,0,0,0,.79,2.64,1.34,1.34,0,0,0,1.06.66A1.39,1.39,0,0,0,172,87.2c1.16-1.18,1.4-1.83,1.4-2.18.15-1.35.25-2.5.31-3.43l-1.42.71V81.14h.38a.22.22,0,0,0-.2.19h.1l.3-.16.07.16h.28a.21.21,0,0,0-.19-.19h.71q0-.63,0-1.11c.12-2.26.18-5.67.18-10.16a6.17,6.17,0,0,1,.39-1.79,28.08,28.08,0,0,1,5.08-7.35,10.31,10.31,0,0,1,4-2.49,1.88,1.88,0,0,0,1.12-.53c.17-.21.34-.41.51-.59h-1.14a9.18,9.18,0,0,0-3.2.53L178,59.28l-2.44,2.46h-.15a1.59,1.59,0,0,0-.2.17.89.89,0,0,1-1.08.16c-.52-.34-.76-.69-.76-1.07v-.56c-.24-2.35-.37-4.2-.37-5.46a3.07,3.07,0,0,1-.18-1.11l-.24-.09.06.32a23,23,0,0,1,.37,3l-.28,3.07,0,.07a4.19,4.19,0,0,1,.61,2.22v1.86H173c-.57,0-.88-.17-.92-.49a6,6,0,0,1-.19-1.74,6.12,6.12,0,0,1,.2-1.78l.21-.62-.19-.39a5.71,5.71,0,0,1-.59-2.57c0-.27.13-1.17.38-2.64l.09-.56-.34-.15a2.46,2.46,0,0,0-1.42-.18Zm2.64,31.09-.91-1.35.78-.78.25.12c.64.33.5.75.44.87l-.28.55ZM173,81l-.46-.47a1.84,1.84,0,0,1-.48-1.37V76a10.21,10.21,0,0,1,.19-2.31l.37-1.47.36,1.47c.12.5.25,1.09.37,1.78a13.31,13.31,0,0,1,.19,2.37,10.54,10.54,0,0,1-.38,2.5Z"/><path d="M210.15,66.35v.37a26.89,26.89,0,0,1-1.85,2.78c-.74,1-1.45,1.91-2.12,2.77s-1.39,1.79-2.13,2.77a28.43,28.43,0,0,1-6.1,6.1,11.52,11.52,0,0,1-3.51,2,4.88,4.88,0,0,1-1.48.19,8.72,8.72,0,0,1-1.2-.09,3.29,3.29,0,0,0-1.38.09,2.14,2.14,0,0,1-.93.18,6.24,6.24,0,0,1-1.48-.18,5.7,5.7,0,0,0-1.47-.19l-.74-.55a8.82,8.82,0,0,1-2.78-5,16.48,16.48,0,0,1-.37-3A18.55,18.55,0,0,1,188.16,61l2-1.67a4,4,0,0,1,2.22-.74,3.26,3.26,0,0,0,1.29-.18h.56a4.49,4.49,0,0,1,3.88,2.22,10.55,10.55,0,0,1,1.11,4.8l-.37,1.85h-.19v-2.4a3,3,0,0,0-.46,1.38,1.53,1.53,0,0,1-.65,1.2l-.18-.55a7.41,7.41,0,0,1-.19-1.85,5.43,5.43,0,0,0-1.29-3.33,2.73,2.73,0,0,0-1.66-1.29,3.39,3.39,0,0,0-1.85,1.85,14,14,0,0,0-1.85,3.51,18.56,18.56,0,0,0-1.48,8,9.36,9.36,0,0,0,1.48,5,3.74,3.74,0,0,0,2.22,1.66,15.74,15.74,0,0,0,6.65-4.06l3.88-3.89q.18-.18,4.07-4.62l1.29-1.66A1.28,1.28,0,0,1,210.15,66.35ZM186.86,69.5a10.43,10.43,0,0,0-.92,3.88A7.58,7.58,0,0,0,186.5,76Q186.86,71.53,186.86,69.5Z"/><path d="M189.45,83.92a6.63,6.63,0,0,1-1.57-.2,5.92,5.92,0,0,0-1.38-.17h-.13l-.84-.63a9.29,9.29,0,0,1-2.92-5.22,17.12,17.12,0,0,1-.37-3,19,19,0,0,1,5.65-13.94L190,59a4.46,4.46,0,0,1,2.46-.82,2.62,2.62,0,0,0,1.13-.15l.16,0h.56a4.88,4.88,0,0,1,4.19,2.39,11,11,0,0,1,1.17,5l-.43,2.22h-.87v-.43a1.77,1.77,0,0,1-.53.56l-.41.27L197,67a8.54,8.54,0,0,1-.2-2,5.09,5.09,0,0,0-1.22-3.1,2.48,2.48,0,0,0-1.33-1.12,3,3,0,0,0-1.54,1.6,14.2,14.2,0,0,0-1.83,3.46,18.3,18.3,0,0,0-1.46,7.83,9.08,9.08,0,0,0,1.42,4.81A3.58,3.58,0,0,0,192.76,80a15.6,15.6,0,0,0,6.41-4l3.88-3.88c.07-.07.69-.76,4-4.6l1.34-1.73.09,0a1.63,1.63,0,0,1,1.89.27l.11.11v.63l-.06.09a28.1,28.1,0,0,1-1.87,2.81c-.74,1-1.45,1.91-2.13,2.77s-1.38,1.78-2.12,2.77a29.08,29.08,0,0,1-6.17,6.17,12,12,0,0,1-3.62,2.09,6.53,6.53,0,0,1-2.85.11,3.13,3.13,0,0,0-1.24.08A2.33,2.33,0,0,1,189.45,83.92Zm-2.83-1.12a7,7,0,0,1,1.44.19,3.58,3.58,0,0,0,2.15,0,4,4,0,0,1,1.61-.12,6,6,0,0,0,2.51-.08,11.53,11.53,0,0,0,3.39-2,28.7,28.7,0,0,0,6-6c.74-1,1.45-1.92,2.13-2.78s1.39-1.78,2.12-2.77a25.73,25.73,0,0,0,1.78-2.65v-.09a.92.92,0,0,0-.88,0l-1.22,1.58c-3.9,4.46-4.05,4.61-4.1,4.66L199.7,76.6a16.13,16.13,0,0,1-6.81,4.16l-.09,0-.08,0A4.11,4.11,0,0,1,190.26,79a9.74,9.74,0,0,1-1.55-5.21,19,19,0,0,1,1.5-8.09,14.28,14.28,0,0,1,1.89-3.58,3.65,3.65,0,0,1,2-2l.11-.05.11,0a3.14,3.14,0,0,1,1.9,1.46,5.75,5.75,0,0,1,1.36,3.53,7.61,7.61,0,0,0,.15,1.65,1.68,1.68,0,0,0,.12-.49,3.43,3.43,0,0,1,.52-1.55l.41-.62a9.93,9.93,0,0,0-1-3.26,4.07,4.07,0,0,0-3.54-2h-.48a3.59,3.59,0,0,1-1.37.19,3.71,3.71,0,0,0-2,.67l-2,1.65A18.27,18.27,0,0,0,183,74.67a15.77,15.77,0,0,0,.36,2.89A8.45,8.45,0,0,0,186,82.34Zm.11-5.14-.59-1.56a8,8,0,0,1-.57-2.72,10.78,10.78,0,0,1,1-4l.72-1.72V69.5c0,1.36-.12,3.49-.37,6.5Zm-.36-5.11a6,6,0,0,0-.05.83v0C186.34,73.11,186.35,72.82,186.37,72.55Z"/><path d="M232.24,65.43c.55,0,.83.25.83.74a18.32,18.32,0,0,0-.37,2c-.13.87-.25,1.55-.37,2a101.56,101.56,0,0,0-1.67,11.09c-.73,4.92-1.23,7.94-1.47,9L228.63,92a1.27,1.27,0,0,1-1.66.56L225.49,92a58.34,58.34,0,0,1-3.14-7.57c-.25-1.24-.59-2.59-1-4.07s-.83-3.14-1.2-5q-.18-.55-1.11-6.84c0-.49-.12-.8-.37-.92-1.11.12-2.09,1.88-3,5.27a34.37,34.37,0,0,0-1.1,9.88,1.69,1.69,0,0,1-.84,1.48,2.68,2.68,0,0,1-1.38.56,1.23,1.23,0,0,1-1.11-.56,2.77,2.77,0,0,1-.93-1.29c-.12-.37-.34-1.3-.64-2.77s-.53-2.41-.65-2.78l-.55-5.73a48.92,48.92,0,0,1-.37-5.17l-.37-5v-9.8a121.05,121.05,0,0,1,.92-14,158.48,158.48,0,0,1,2.59-17A59.31,59.31,0,0,1,214.59,10a27.47,27.47,0,0,1,2.95-5A9,9,0,0,1,222,2.22a10.42,10.42,0,0,1,2.22-.37A5.79,5.79,0,0,1,229,4.26a16.43,16.43,0,0,1,3.14,5.91,41.39,41.39,0,0,1,1.48,10.72,44,44,0,0,1-.92,8.5,51.7,51.7,0,0,1-11.46,22.73A104.31,104.31,0,0,1,214,59.89a2,2,0,0,0-.74,1.84c0,3.46.06,6,.19,7.77v.74a21.85,21.85,0,0,0,1.94-3.79c1.17-2.53,2.55-4.1,4.16-4.72a2.58,2.58,0,0,1,1.1-.18A2.15,2.15,0,0,1,222.9,63a4.48,4.48,0,0,1,.93,2l.74,3.88Q225.68,74.49,226,78l.93,7.21a1.48,1.48,0,0,0,.18.92.73.73,0,0,0,.56.74v1.29l.55-1.29c.25-1.23.49-3.08.74-5.54l.37-2,.56-3.32.18-1.48a2.75,2.75,0,0,0-.37-1.11h.56l.18-1.48-.18-.19.36-.73a.46.46,0,0,0,0-.74l.56-4.07A.93.93,0,0,1,232.24,65.43Zm-19.5-45.65a10.66,10.66,0,0,0,.37-2.4,1.09,1.09,0,0,1-.37.74,12.63,12.63,0,0,1-.74,2.95,85.66,85.66,0,0,0-1.67,9.8L209.78,36,209,45.66q-.18,2.4-.18,7a42.56,42.56,0,0,0-.1,4.8c.06,1.36.1,2.47.1,3.33,0,.49.12.8.37.92.24-.24.37-.43.37-.55L209.41,59q-.18-3.69.19-11.09l.37-5c.24-3.69.49-6.53.73-8.5Q211.26,27.92,212.74,19.78Zm-2.41,57.11-.73-12.57-.37.19a1,1,0,0,0-.19.74l.56,8.5a23.85,23.85,0,0,1,.37,3,.16.16,0,0,1,.18.18Zm2.78-20a.85.85,0,0,0,.55.92l.93-.74c.74-.61,2.64-2.64,5.72-6.09A58,58,0,0,0,228.82,37l1.11-2.77a3,3,0,0,1,.37-1.3l.55-1.66a13.23,13.23,0,0,0,.65-2.5c.18-1,.33-1.81.46-2.31a15.43,15.43,0,0,0,.28-3.88c-.07-1.48-.1-2.46-.1-2.95V19H232a5.4,5.4,0,0,0-.19,1.67v-1.3a6.53,6.53,0,0,1,.19-1.66l-.37-.56a1,1,0,0,0,0-1.11v1.11l-.19-1.11a42.58,42.58,0,0,0-2.21-7.39,11.57,11.57,0,0,0-4.62-4.8h-.74l-2,1.66L220.5,6.84A9.58,9.58,0,0,0,219.39,9c-.37.92-.68,1.63-.92,2.12l-2,6.29q-.56,2.78-1.29,7a59.9,59.9,0,0,0-.83,6.84c-.19,2.59-.34,4.37-.46,5.36q-.37,4.07-.74,12.2Zm.18-40.48h.19l-.19-.18Zm7,51.94h.19v-.74h-.19Zm.56,2a2,2,0,0,0-.19-.92.17.17,0,0,0-.18-.19l-.19.19a2,2,0,0,1,.19.92Zm7.21,14.42a2.16,2.16,0,0,0-.19,1,2.39,2.39,0,0,1-.18,1Zm.18-.93-.18.93v-.93a3,3,0,0,1,.37-1.66A5.33,5.33,0,0,0,228.26,83.91Zm0-1.66a4.63,4.63,0,0,0,.19-1.66A1.54,1.54,0,0,1,228.26,82.25ZM229.37,75h.19v.19A.17.17,0,0,1,229.37,75Zm.93-3.33-.19.19A.17.17,0,0,1,230.3,71.71Zm0-.18v0Zm.36-1.11V71C230.42,70.85,230.42,70.67,230.66,70.42Z"/><path d="M227.56,93.08a2.45,2.45,0,0,1-.71-.12l-1.63-.62-.07-.13A61.23,61.23,0,0,1,222,84.58c-.26-1.26-.6-2.62-1-4.07s-.83-3.15-1.21-5c-.07-.2-.28-1.19-1.11-6.85a1.25,1.25,0,0,0-.1-.58c-.56.18-1.51,1.11-2.49,5a34.41,34.41,0,0,0-1.1,9.78,2,2,0,0,1-1,1.8c-1.44,1-2.42.72-3,0a3.09,3.09,0,0,1-1-1.42c-.14-.41-.36-1.36-.67-2.84-.38-1.8-.55-2.48-.63-2.73l-.58-5.81a51.67,51.67,0,0,1-.37-5.21l-.37-5V51.75a120.11,120.11,0,0,1,.93-14.09,160.5,160.5,0,0,1,2.59-17,60.33,60.33,0,0,1,3.35-10.79,28.72,28.72,0,0,1,3-5.07,9.48,9.48,0,0,1,4.67-2.92,10.28,10.28,0,0,1,2.29-.37A6.19,6.19,0,0,1,229.3,4a17,17,0,0,1,3.2,6A42.07,42.07,0,0,1,234,20.89a44.75,44.75,0,0,1-.93,8.57,52.34,52.34,0,0,1-11.55,22.91,104.63,104.63,0,0,1-7.22,7.78,1.67,1.67,0,0,0-.64,1.51q0,4.74.16,7.27c.27-.55.67-1.38,1.26-2.64,1.2-2.6,2.67-4.25,4.36-4.91a3,3,0,0,1,1.24-.21,2.54,2.54,0,0,1,2.55,1.67,4.79,4.79,0,0,1,1,2.16l.73,3.87c.74,3.67,1.24,6.73,1.49,9.09l.73,5.7.78-1.58a4.31,4.31,0,0,0,.14-1.49V78.26l.72,2.16.21-1.19.59-3.63h0A.54.54,0,0,1,229,75v-.37h.71l0-.23a2.72,2.72,0,0,0-.34-.89l-.26-.55H230l.07-.48-.29.29V71.9a.52.52,0,0,1,.3-.5l.16-.34a.51.51,0,0,1-.09-.22.72.72,0,0,1,.17-.55l.57-4.17a1.3,1.3,0,0,1,1.39-1.06,1.06,1.06,0,0,1,1.2,1.11c-.13.58-.25,1.25-.37,2.09s-.25,1.56-.38,2.07a103.9,103.9,0,0,0-1.65,11c-.74,4.91-1.24,8-1.49,9.09l-.56,1.7A1.63,1.63,0,0,1,227.56,93.08Zm-1.8-1.33,1.34.5a.91.91,0,0,0,1.21-.4l.52-1.59c.24-1.07.73-4.11,1.46-9A100.49,100.49,0,0,1,232,70.13c.11-.47.24-1.14.36-2s.25-1.56.37-2.07c0-.12,0-.27-.46-.27s-.6.21-.66.45l-.52,3.86a.81.81,0,0,1,0,1v.22h.16l-.16.16v.08l0,0-.16.17,0,0-.25,2h-.31a2.25,2.25,0,0,1,.17.74L230.3,76l-.63,3.75,0,0,0,.13-.28,1.54c-.25,2.48-.49,4.3-.74,5.55l-1.3,3V88.5l-.48,1,.44-2.39a1.08,1.08,0,0,1-.51-.83,2.1,2.1,0,0,1-.19-1.05l-.92-7.16c-.25-2.35-.74-5.38-1.47-9l-.74-3.89a4.07,4.07,0,0,0-.85-1.87l-.06-.1a1.78,1.78,0,0,0-1.87-1.24,2.14,2.14,0,0,0-.94.15c-1.53.59-2.86,2.11-4,4.54-1.86,4-2,4-2.28,4h-.38V69.5c-.12-1.71-.18-4.26-.18-7.77a2.33,2.33,0,0,1,.85-2.11c3.3-3.3,5.71-5.9,7.18-7.73a51.55,51.55,0,0,0,11.38-22.58,43.23,43.23,0,0,0,.92-8.42,41.5,41.5,0,0,0-1.47-10.62,16,16,0,0,0-3.06-5.76,5.41,5.41,0,0,0-4.52-2.28,9.74,9.74,0,0,0-2.13.36,8.69,8.69,0,0,0-4.26,2.67,27.66,27.66,0,0,0-2.88,4.88c-.73,1.76-1.37,3.54-1.92,5.31l1.37,1.38h-1.46V15.74q-.78,2.53-1.29,5-.31,1.54-.6,3.06c.18-1,.39-1.91.6-2.85a12,12,0,0,0,.74-2.93l0-.12.08-.09a.68.68,0,0,0,.26-.47h.75a10.4,10.4,0,0,1-.38,2.48c-1,5.36-1.65,10.26-2,14.55-.25,2-.49,4.75-.74,8.5l-.37,5c-.25,4.88-.31,8.59-.18,11l.18,2.21a1.23,1.23,0,0,1-.48.85l-.19.19-.24-.12a1.27,1.27,0,0,1-.58-1.26c0-.84,0-1.92-.09-3.31a45.78,45.78,0,0,1,.09-4.85c0-3.1.06-5.41.19-7l.74-9.61.55-5.19c.17-1.55.39-3.1.64-4.63-.69,4-1.22,7.9-1.55,11.54a119,119,0,0,0-.93,14v9.8l.37,5a50.29,50.29,0,0,0,.37,5.16l.55,5.74c.11.31.34,1.25.65,2.73.37,1.8.55,2.48.63,2.73a2.3,2.3,0,0,0,.78,1.1l.1.11a.88.88,0,0,0,.8.38,2.26,2.26,0,0,0,1.18-.49,1.35,1.35,0,0,0,.66-1.17,35.16,35.16,0,0,1,1.12-10c.93-3.63,2-5.4,3.28-5.54l.11,0,.1,0a1.29,1.29,0,0,1,.58,1.26c.75,5.11,1,6.48,1.09,6.72q.57,2.85,1.2,5c.43,1.47.77,2.85,1,4.09A58.13,58.13,0,0,0,225.76,91.75Zm1.41-7.88.17,1.29c0,.59.08.71.09.72l.07.06,0-.12a2.71,2.71,0,0,1,.18-1.07v-.84a5.74,5.74,0,0,1,0-.6ZM229.56,75h.1l0-.13a.23.23,0,0,0-.12-.06Zm-18.83,2.22h-.95v-.18h-.19v-.37a22.87,22.87,0,0,0-.36-2.9l-.56-8.54a1.39,1.39,0,0,1,.29-1l.1-.07.88-.44Zm10.51-6.46h-1.11v-.38a1.72,1.72,0,0,0-.15-.76l-.12-.24.48-.48h.16a.52.52,0,0,1,.55.46,2.48,2.48,0,0,1,.19,1Zm-.36-2h-.94V67.27h.94Zm-7.14-10.49-.2-.06a1.21,1.21,0,0,1-.81-1.28V48.8c.25-5.44.5-9.55.74-12.23.13-1,.28-2.82.46-5.36a63.5,63.5,0,0,1,.84-6.88c.48-2.76.92-5.12,1.3-7l2-6.32c.26-.54.57-1.24.93-2.15a9.86,9.86,0,0,1,1.16-2.21l1.33-1.33,2.16-1.78h1l.09.05a12.11,12.11,0,0,1,4.76,5,42.89,42.89,0,0,1,2.15,7l.23.35a1.28,1.28,0,0,1,.13,1.3l.33.5,0,.16a6.23,6.23,0,0,0-.14.83h.34v.93c0,.51,0,1.56.09,2.94a15.38,15.38,0,0,1-.29,4c-.12.48-.27,1.22-.45,2.29a14.19,14.19,0,0,1-.67,2.57L230.65,33a2.76,2.76,0,0,0-.35,1.18l0,.14-1.1,2.77a58.32,58.32,0,0,1-8.57,14.14c-3.13,3.51-5,5.52-5.77,6.15ZM224,4.26,222,5.84l-1.26,1.27a8.8,8.8,0,0,0-1,2c-.37.93-.69,1.65-.94,2.15l-2,6.23c-.37,1.86-.8,4.22-1.28,7a61.73,61.73,0,0,0-.83,6.8c-.18,2.55-.34,4.36-.46,5.38-.24,2.66-.49,6.76-.74,12.16v8.12a.68.68,0,0,0,.14.48l.73-.59c.71-.59,2.63-2.63,5.69-6a57.7,57.7,0,0,0,8.43-14l1.08-2.7a3.48,3.48,0,0,1,.41-1.39l.53-1.61a12.42,12.42,0,0,0,.64-2.44c.19-1.08.34-1.85.46-2.34a14.58,14.58,0,0,0,.27-3.77c0-.73-.05-1.36-.07-1.86h-.39v-1.3a7.14,7.14,0,0,1,.16-1.59l-.42-.63.05-.08-.16-1a42,42,0,0,0-2.19-7.32,11.21,11.21,0,0,0-4.38-4.57Z"/><path d="M261.25,65.34a.74.74,0,0,1,.09.83,2.91,2.91,0,0,1-.37,1.29,79.72,79.72,0,0,1-6.28,11.46,11.92,11.92,0,0,1-3,2.77,8.18,8.18,0,0,1-2.77.74A3.41,3.41,0,0,1,245.82,81q-1.48-2.22-2.4-3.33a3.38,3.38,0,0,1-.93,1.48,9.08,9.08,0,0,1-4.25,4.06,4.62,4.62,0,0,1-2,.56A3.46,3.46,0,0,1,234,83q-1.11-.37-1.29-1.11a3.4,3.4,0,0,0-1.11-1.48,4.06,4.06,0,0,1-1.11-1.29,14.87,14.87,0,0,1-1.3-7.76A16,16,0,0,1,234.73,61a12.91,12.91,0,0,1,3.33-2.22,7.9,7.9,0,0,1,2.77-.56,6.15,6.15,0,0,1,4.43,2,6.08,6.08,0,0,1,1.48,1.66,13.51,13.51,0,0,1,2,8.69,3,3,0,0,0-.19,1.29,2.75,2.75,0,0,1-.74,1.48,1.5,1.5,0,0,1-.37-1.11,5.9,5.9,0,0,1,.09-.74,1,1,0,0,0-.27-.92c-.13,0-.19.06-.19.18-.12.49-.27,1.17-.46,2a5.51,5.51,0,0,0-.09,2.22,8.83,8.83,0,0,0,.55,3.14,2.25,2.25,0,0,0,2,1.3,2.33,2.33,0,0,0,1.66-.74,4.09,4.09,0,0,0,1.48-1.67l6.28-10.35a7.67,7.67,0,0,1,1.66-1.84A2.11,2.11,0,0,1,261.25,65.34Zm-30.59,6.37a3.71,3.71,0,0,0,.19,2.22A4.56,4.56,0,0,0,230.66,71.71Zm.56-4.06a3.85,3.85,0,0,0-.37,2.22A3.85,3.85,0,0,0,231.22,67.65Zm15.34,1.29a15.53,15.53,0,0,0-2-5.17,4,4,0,0,0-1.66-1.48,2.36,2.36,0,0,0-2.22,0c-1.11.74-1.72,1.17-1.84,1.29a12.33,12.33,0,0,0-4.07,8.87,21.7,21.7,0,0,0,.37,3.15c.12.37.43,1.23.92,2.58l.74.74.93-.55a9.17,9.17,0,0,0,2.77-3l3.14-4.8a3.63,3.63,0,0,1,1.66-1.67Zm-9.89,13.12a1.56,1.56,0,0,0,.65-.18l-.37-.19h-.56C236.39,81.94,236.49,82.06,236.67,82.06Zm4.44-21.34a1.67,1.67,0,0,0-.65.46,1.58,1.58,0,0,0,1.29-.18C241.5,60.75,241.29,60.66,241.11,60.72Zm9.33,20.61a3.34,3.34,0,0,0-2.22,0c0,.12.19.3.56.55A2.29,2.29,0,0,0,250.44,81.33Z"/><path d="M236.21,84.1a3.82,3.82,0,0,1-2.4-.78A2,2,0,0,1,232.33,82a3,3,0,0,0-1-1.27c-.15-.06-.48-.32-1.19-1.38a15.28,15.28,0,0,1-1.36-8,16.52,16.52,0,0,1,5.67-10.6,13.71,13.71,0,0,1,3.41-2.27,8.31,8.31,0,0,1,2.94-.59,6.6,6.6,0,0,1,4.7,2.14,6.46,6.46,0,0,1,1.53,1.74,13.9,13.9,0,0,1,2.09,8.92l0,.12A3,3,0,0,0,249,71.9a3,3,0,0,1-.82,1.71l-.27.33-.29-.29a1.75,1.75,0,0,1-.48-1.19l-.09.44a5,5,0,0,0-.09,2.07,8.7,8.7,0,0,0,.53,3.08,1.87,1.87,0,0,0,3.08.42l.1-.07A3.7,3.7,0,0,0,252,76.89l6.29-10.36A8.23,8.23,0,0,1,260,64.59l.15-.12.19,0a2.75,2.75,0,0,1,1.19.56h0a1.1,1.1,0,0,1,.2,1.16,3.57,3.57,0,0,1-.41,1.4A80.25,80.25,0,0,1,255,79.13,12.63,12.63,0,0,1,251.93,82a8.58,8.58,0,0,1-3,.8,3.77,3.77,0,0,1-3.46-1.66c-.77-1.15-1.43-2.09-2-2.78a4.69,4.69,0,0,1-.73,1,9.59,9.59,0,0,1-4.39,4.18A5,5,0,0,1,236.21,84.1Zm4.62-25.5a7.6,7.6,0,0,0-2.64.53,12.53,12.53,0,0,0-3.2,2.13,15.76,15.76,0,0,0-5.43,10.13A14.45,14.45,0,0,0,230.82,79c.59.88.85,1.07.93,1.11A3.73,3.73,0,0,1,233,81.74c.11.41.46.69,1.07.89l.11.07a3.36,3.36,0,0,0,3.85.14,8.87,8.87,0,0,0,4.09-3.9l.07-.1a2.87,2.87,0,0,0,.82-1.3l.18-.72.47.57a40.76,40.76,0,0,1,2.43,3.36,2.75,2.75,0,0,0,2.2,1.27c-.34-.26-.48-.46-.48-.69V81l.28-.07a5.46,5.46,0,0,1,1.2-.19,5.55,5.55,0,0,1,1.2.19l.64.16-.47.47a1,1,0,0,1-.15.14c.32-.1.66-.23,1-.38a12.16,12.16,0,0,0,2.81-2.66,80.5,80.5,0,0,0,6.23-11.38,2.61,2.61,0,0,0,.34-1.14l0-.12c.05-.15.09-.35,0-.45a1.83,1.83,0,0,0-.66-.31,6.77,6.77,0,0,0-1.44,1.63l-6.28,10.35A4.38,4.38,0,0,1,251,79a2.61,2.61,0,0,1-4.24-.67,9.26,9.26,0,0,1-.61-3.33,5.91,5.91,0,0,1,.1-2.29c.19-.87.34-1.55.47-2a.5.5,0,0,1,.55-.47h.15l.11.11a1.4,1.4,0,0,1,.38,1.25,4.25,4.25,0,0,0-.08.68,1.73,1.73,0,0,0,0,.41,1.58,1.58,0,0,0,.32-.78,3.74,3.74,0,0,1,.19-1.4,13.26,13.26,0,0,0-2-8.39A5.81,5.81,0,0,0,245,60.55,5.91,5.91,0,0,0,240.83,58.6Zm6.66,12.19v0A.43.43,0,0,0,247.49,70.79ZM236.67,82.44a.66.66,0,0,1-.65-.75v-.37l1.1,0,1,.52-.67.34A1.8,1.8,0,0,1,236.67,82.44Zm0-.75Zm0-2.29-1-1.09c-.5-1.36-.8-2.23-.93-2.6a22.42,22.42,0,0,1-.39-3.26,12.77,12.77,0,0,1,4.18-9.13A14.88,14.88,0,0,1,240.44,62,2.73,2.73,0,0,1,243,62a4.43,4.43,0,0,1,1.83,1.65,16.16,16.16,0,0,1,2.07,5.27l.09.45h-1.67a3.19,3.19,0,0,0-1.41,1.45l-3.17,4.85a9.4,9.4,0,0,1-2.88,3.06ZM236.35,78l.47.47.67-.4a8.8,8.8,0,0,0,2.65-2.83l3.15-4.82a3.93,3.93,0,0,1,1.81-1.79l.16,0h.83A15.44,15.44,0,0,0,244.21,64a3.77,3.77,0,0,0-1.54-1.35,2,2,0,0,0-1.86,0c-1.47,1-1.71,1.19-1.75,1.23a12.07,12.07,0,0,0-4,8.6,22.08,22.08,0,0,0,.37,3.08C235.57,75.84,235.87,76.67,236.35,78Zm-5.29-3-.52-.79a3.89,3.89,0,0,1-.25-2.47l.19-1.69,0,.09,0-.13a4.25,4.25,0,0,1,.39-2.44l.48-1.12.24,1.2a4.22,4.22,0,0,1-.4,2.43l-.39.92.22.67a4.91,4.91,0,0,1,.2,2.4Zm9.88-13.31a2.24,2.24,0,0,1-.57-.08l-.64-.16.46-.46a2.32,2.32,0,0,1,.79-.56h0a1,1,0,0,1,1,.37l.32.32-.38.26A1.85,1.85,0,0,1,240.94,61.62Z"/></g></g></svg>