<?xml version="1.0" ?><svg enable-background="new 0 0 116.3787 194.4198" id="facebook" version="1.1" viewBox="0 0 116.3787 194.4198" xml:space="preserve" xmlns="http://www.w3.org/2000/svg" xmlns:xlink="http://www.w3.org/1999/xlink"><path d="M97.3535,34.7538h19.0252V0.0214h-34.572C78.924-0.0998,43.7675-0.7718,34.6543,33.9766  c-0.1328,0.3652-3.0432,8.6268-3.0432,27.9316L0,62.0018v36.4296l31.6523-0.0936v96.082H80v-96h32V61.8962H80v-11.492  C80,43.2634,83.0095,34.7538,97.3535,34.7538z M104,69.8962v20.5236H72v96H39.6523V90.3142L8,90.4082v-20.43l31.7343-0.0936  l-0.082-4.0684c-0.414-20.4472,2.5-29.0488,2.6308-29.4588c7.8632-29.9296,37.8908-28.422,39.1796-28.344l26.916,0.008v18.7324  H97.3535C78.66,26.7538,72,38.9706,72,50.4042v19.492H104z"/></svg>