<?xml version="1.0" ?><!DOCTYPE svg  PUBLIC '-//W3C//DTD SVG 1.1//EN'  'http://www.w3.org/Graphics/SVG/1.1/DTD/svg11.dtd'><svg height="100%" style="fill-rule:evenodd;clip-rule:evenodd;stroke-linejoin:round;stroke-miterlimit:2;" version="1.1" viewBox="0 0 64 64" width="100%" xml:space="preserve" xmlns="http://www.w3.org/2000/svg" xmlns:serif="http://www.serif.com/" xmlns:xlink="http://www.w3.org/1999/xlink"><g transform="matrix(1,0,0,1,-151,-78)"><g id="Artboard1" transform="matrix(1,0,0,1,151,78)"><rect height="64" style="fill:none;" width="64" x="0" y="0"/><g transform="matrix(1.09879,0,0,1.09879,-169.61,-90.6775)"><path d="M184.478,108.606C181.004,111.803 177.613,114.829 177.613,114.829C177.144,115.247 177.104,115.966 177.522,116.435C177.94,116.903 178.659,116.944 179.128,116.526C179.128,116.526 188.011,108.597 191.804,104.804C192.383,104.226 192.557,103.783 192.588,103.599C192.667,103.131 192.503,102.801 192.267,102.561C192.094,102.384 191.837,102.216 191.443,102.199C191.25,102.191 190.821,102.266 190.243,102.538C186.937,104.093 173.791,112.851 173.791,112.851C173.268,113.199 173.127,113.906 173.475,114.428C173.824,114.951 174.531,115.092 175.053,114.744C175.053,114.744 179.946,111.48 184.478,108.606Z"/></g><g transform="matrix(1,0,0,1,-151,-78)"><path d="M183,80.75C166.856,80.75 153.75,93.856 153.75,110C153.75,126.144 166.856,139.25 183,139.25C199.144,139.25 212.25,126.144 212.25,110C212.25,93.856 199.144,80.75 183,80.75ZM183,83.25C197.764,83.25 209.75,95.236 209.75,110C209.75,124.764 197.764,136.75 183,136.75C168.236,136.75 156.25,124.764 156.25,110C156.25,95.236 168.236,83.25 183,83.25Z"/></g><g transform="matrix(1.09879,0,0,1.09879,-169.61,-90.6775)"><path d="M173.509,114.698L175.943,122.616C175.952,122.645 175.962,122.674 175.973,122.702C176.232,123.352 176.492,123.73 176.678,123.909C177.014,124.233 177.359,124.308 177.645,124.3C178.047,124.288 178.695,124.048 178.952,123.095C178.97,123.025 178.983,122.954 178.988,122.882L179.356,117.814C179.356,117.814 188.971,124.886 188.971,124.886C189.959,125.636 190.847,125.795 191.52,125.59C192.214,125.378 192.886,124.742 193.204,123.388C193.206,123.38 193.208,123.372 193.209,123.364L197.955,101.001C198.238,99.81 198.079,98.92 197.692,98.4C197.243,97.795 196.394,97.384 194.95,97.774C194.911,97.784 194.872,97.797 194.835,97.812L166.959,108.623C166.916,108.64 166.874,108.66 166.833,108.681C165.512,109.39 165.218,110.201 165.214,110.726C165.209,111.433 165.705,112.117 166.547,112.455C166.572,112.465 166.597,112.475 166.623,112.483L173.509,114.698ZM195.816,99.919C195.805,100.081 195.783,100.301 195.739,100.486C195.736,100.496 195.734,100.506 195.732,100.516L190.987,122.876C190.947,123.041 190.868,123.23 190.815,123.348C190.689,123.286 190.488,123.181 190.343,123.07C190.337,123.066 190.332,123.062 190.326,123.058L179.044,114.761C178.711,114.516 178.27,114.471 177.894,114.644C177.518,114.818 177.266,115.182 177.236,115.595L177.031,118.412L175.509,113.463C175.4,113.108 175.124,112.828 174.77,112.714L168.176,110.592L195.593,99.958C195.667,99.941 195.745,99.928 195.816,99.919Z"/></g><g transform="matrix(1.09879,0,0,1.09879,-169.61,-90.6775)"><path d="M178.391,124.017L183.337,119.746C183.812,119.336 183.865,118.617 183.455,118.142C183.044,117.667 182.325,117.614 181.85,118.024L176.905,122.295C176.429,122.705 176.377,123.424 176.787,123.899C177.197,124.375 177.916,124.427 178.391,124.017Z"/></g></g></g></svg>